<svg width="36" height="36" viewBox="0 0 36 36" fill="none" xmlns="http://www.w3.org/2000/svg">
<rect width="36" height="36" rx="18" fill="url(#paint0_linear_287_21)"/>
<path d="M22.5452 24.4456C22.4855 24.952 22.4313 25.4622 22.3649 25.9704C22.2313 26.9938 21.4363 27.8141 20.4197 27.9661C20.2658 27.9888 20.2185 28.0411 20.2019 28.1901C20.1108 28.9925 19.4683 29.5709 18.6604 29.5833C18.1539 29.5906 17.6475 29.5869 17.141 29.5845C16.2672 29.5808 15.6414 29.0374 15.5122 28.1741C15.5042 28.1211 15.4986 28.0682 15.4943 28.0313C15.2285 27.9495 14.9614 27.8984 14.722 27.7882C13.9116 27.4153 13.4531 26.7673 13.3461 25.8861C13.2205 24.8511 13.1085 23.8136 13.0064 22.7755C12.9104 21.7989 13.2931 21.0444 14.1091 20.5054C14.1405 20.4845 14.1707 20.4623 14.2107 20.434C13.871 20.2851 13.535 20.1565 13.2162 19.9952C11.4901 19.1214 10.5012 17.6956 10.1585 15.8151C9.83295 14.0281 10.0016 12.2872 10.7326 10.6115C10.7708 10.5235 10.7905 10.4202 10.7911 10.3236C10.796 9.70942 10.7978 9.09529 10.7886 8.48177C10.7874 8.40177 10.7363 8.28547 10.6723 8.24916C10.1929 7.97901 9.95479 7.57903 10.0194 7.03381C10.0809 6.51814 10.3886 6.19076 10.8846 6.04C10.9043 6.03385 10.9197 6.01415 10.9375 6.00123C11.0914 6.00123 11.2446 6.00123 11.3984 6.00123C11.4175 6.01292 11.436 6.03015 11.4569 6.03569C11.988 6.18338 12.3012 6.5366 12.3523 7.07812C12.4015 7.6018 12.1584 7.99132 11.6944 8.24362C11.6477 8.26885 11.5867 8.323 11.5849 8.36608C11.5738 8.59869 11.58 8.8313 11.58 9.11806C11.6532 9.03313 11.6877 8.9956 11.7197 8.9556C12.8956 7.47811 14.4076 6.54337 16.2555 6.15815C16.5835 6.08984 16.917 6.05231 17.2481 6.00062C17.6475 6.00062 18.0462 6.00062 18.4456 6.00062C18.5816 6.01846 18.717 6.03692 18.853 6.05477C20.9569 6.33414 22.6768 7.29534 24.0054 8.95314C24.0411 8.99806 24.0817 9.03867 24.1531 9.11867C24.1531 8.88175 24.142 8.69222 24.1568 8.50454C24.1685 8.35254 24.1107 8.27993 23.9777 8.20547C23.5421 7.96301 23.3347 7.5778 23.3747 7.07997C23.4134 6.60183 23.6731 6.27199 24.1131 6.08369C24.1746 6.05723 24.235 6.02831 24.2953 6C24.4491 6 24.6023 6 24.7562 6C24.8128 6.02154 24.8694 6.04246 24.926 6.064C25.3912 6.24368 25.67 6.58152 25.7137 7.07627C25.7574 7.57164 25.5463 7.96055 25.1106 8.20362C24.9759 8.2787 24.926 8.35439 24.9346 8.50392C24.9475 8.72607 24.9469 8.94945 24.9365 9.17159C24.8995 9.93464 25.006 10.6552 25.2725 11.3906C25.8281 12.9235 25.8657 14.5154 25.5057 16.1068C25.0319 18.1996 23.75 19.5842 21.7532 20.3282C21.6763 20.3571 21.6 20.3872 21.5113 20.4217C22.3895 20.6623 22.7162 21.4106 22.7058 22.0161M18.2419 20.1509C18.8462 20.1565 19.8302 20.0703 20.7926 19.8137C22.1476 19.4525 23.3058 18.7947 24.0737 17.5738C24.6319 16.687 24.8589 15.7 24.9186 14.6674C25.0232 12.8392 24.6356 11.1321 23.5365 9.64727C21.987 7.55441 19.864 6.63444 17.2881 6.82767C14.754 7.01781 12.8587 8.2707 11.6569 10.5082C10.7855 12.1297 10.6065 13.8754 10.9345 15.6729C11.2883 17.6107 12.407 18.9171 14.255 19.5983C15.4162 20.0266 16.6253 20.1472 18.2419 20.1509ZM14.1879 26.0437C14.2113 26.1329 14.2199 26.1852 14.2383 26.2338C14.4679 26.8363 15.0457 27.227 15.7306 27.2289C17.1503 27.2326 18.5699 27.2313 19.9896 27.2283C20.1188 27.2283 20.2505 27.2123 20.3772 27.1864C20.9495 27.0689 21.459 26.563 21.5187 26.0443C21.4344 26.0443 21.352 26.0443 21.2695 26.0443C20.5329 26.0443 19.7963 26.0461 19.0597 26.0418C18.8339 26.0406 18.6868 25.9101 18.6573 25.7089C18.629 25.5157 18.7367 25.3403 18.9293 25.2849C19.0087 25.2622 19.0954 25.2597 19.1791 25.2597C19.9237 25.2579 20.6677 25.2585 21.4123 25.2585C21.4935 25.2585 21.5747 25.2585 21.6572 25.2585C21.7526 24.4173 21.8443 23.6105 21.9359 22.8032C21.9384 22.7804 21.9409 22.7576 21.9427 22.7342C22.0123 21.8641 21.5169 21.1214 20.7231 20.9854C20.3126 20.9152 19.8868 20.9386 19.424 20.9183C19.424 21.2549 19.4431 21.5534 19.4203 21.8481C19.3699 22.4881 19.032 22.9404 18.4419 23.1804C17.4142 23.5982 16.3195 22.8536 16.2887 21.7269C16.282 21.4697 16.2875 21.2124 16.2875 20.9497C15.8931 20.9497 15.5306 20.9171 15.1755 20.9558C14.2863 21.0537 13.7122 21.7761 13.7836 22.6709C13.8113 23.0148 13.8513 23.3576 13.8894 23.7004C13.9467 24.2154 14.0076 24.7305 14.0685 25.2572C14.8599 25.2572 15.6266 25.2566 16.3927 25.2579C16.5078 25.2579 16.6247 25.2505 16.7373 25.2677C16.9466 25.2997 17.0764 25.4671 17.0684 25.672C17.0598 25.8775 16.917 26.0234 16.701 26.04C16.6173 26.0468 16.5324 26.0431 16.4481 26.0431C15.706 26.0437 14.962 26.0437 14.1879 26.0437ZM17.0592 20.9497C17.0758 21.2906 17.0623 21.6137 17.1146 21.9257C17.1736 22.2795 17.5047 22.5072 17.8684 22.5053C18.2265 22.5035 18.5736 22.2592 18.6167 21.9164C18.6561 21.6032 18.6253 21.2807 18.6253 20.9491C18.1145 20.9497 17.6124 20.9497 17.0592 20.9497ZM19.4074 28.0338C18.3711 28.0338 17.3355 28.0338 16.2974 28.0338C16.3534 28.4879 16.6278 28.7827 17.034 28.7937C17.5853 28.8091 18.1385 28.8091 18.6899 28.7937C19.1163 28.782 19.4259 28.4381 19.4074 28.0338ZM11.575 7.19996C11.5849 6.99012 11.4046 6.79813 11.1929 6.79136C10.9892 6.78521 10.8089 6.95074 10.7966 7.15689C10.7831 7.38149 10.9406 7.55995 11.1609 7.57103C11.3794 7.58087 11.5652 7.41472 11.575 7.19996ZM24.5469 6.79074C24.334 6.78828 24.1543 6.97043 24.1556 7.18642C24.1568 7.39934 24.3168 7.56364 24.5291 7.57041C24.7488 7.57718 24.9309 7.40857 24.9359 7.19196C24.9408 6.98151 24.7586 6.79321 24.5469 6.79074Z" fill="black"/>
<path d="M17.8771 10.7376C18.7595 10.7376 19.6438 10.6988 20.5237 10.7456C22.4917 10.8502 24.0769 12.5179 24.1507 14.5104C24.2245 16.5048 22.7452 18.2728 20.7797 18.5349C20.5902 18.5601 20.3982 18.5767 20.2068 18.5767C18.6413 18.5798 17.0759 18.586 15.5104 18.5767C13.604 18.5657 12.0459 17.2839 11.6508 15.4193C11.1684 13.14 12.8791 10.8718 15.2076 10.745C16.095 10.697 16.9872 10.737 17.8771 10.7376ZM17.8832 11.508C17.8832 11.5117 17.8832 11.5154 17.8832 11.5191C17.0162 11.5191 16.1473 11.4853 15.2814 11.5265C13.6003 11.6071 12.3277 13.044 12.3652 14.7695C12.4003 16.386 13.7769 17.77 15.4033 17.7885C17.0457 17.8069 18.6887 17.8088 20.3311 17.7878C22.2351 17.7638 23.6923 15.9184 23.3077 14.0526C22.9963 12.5406 21.7631 11.5314 20.1859 11.5099C19.4185 11.4994 18.6506 11.508 17.8832 11.508Z" fill="black"/>
<path d="M17.8709 9.54447C18.1232 9.54447 18.3755 9.53955 18.6278 9.54632C18.8746 9.55247 19.0463 9.72293 19.0414 9.94323C19.0364 10.1549 18.8703 10.3235 18.6358 10.3266C18.1239 10.3334 17.6113 10.3334 17.0993 10.3266C16.8464 10.3235 16.6876 10.158 16.6913 9.92784C16.695 9.6977 16.8531 9.55063 17.1147 9.5457C17.3663 9.54016 17.6186 9.54447 17.8709 9.54447Z" fill="black"/>
<path d="M17.8622 9.14204C17.7244 9.14204 17.5859 9.14819 17.4487 9.1408C17.2333 9.12911 17.1145 8.99989 17.0819 8.79558C17.0524 8.61159 17.1761 8.40544 17.3711 8.38883C17.6967 8.36175 18.0284 8.35806 18.3533 8.38883C18.5606 8.40852 18.6542 8.58328 18.6388 8.79497C18.6246 8.99066 18.4843 9.12173 18.2757 9.14142C18.2603 9.14265 18.245 9.14327 18.2296 9.14327C18.1071 9.14327 17.9847 9.14327 17.8616 9.14327C17.8622 9.14327 17.8622 9.14265 17.8622 9.14204Z" fill="black"/>
<path d="M21.0234 13.0847C21.6837 13.092 22.192 13.6194 22.1809 14.2865C22.1704 14.9271 21.6301 15.4495 20.9895 15.4384C20.3391 15.4274 19.816 14.8828 19.8283 14.2299C19.8413 13.585 20.3705 13.0779 21.0234 13.0847ZM21.0031 13.8711C20.784 13.8729 20.6086 14.0514 20.6142 14.2674C20.6191 14.4705 20.7957 14.6465 20.9981 14.652C21.2098 14.6575 21.3944 14.476 21.3957 14.2612C21.3969 14.0397 21.2252 13.8693 21.0031 13.8711Z" fill="black"/>
<path d="M14.7258 13.0847C15.3731 13.0878 15.8962 13.609 15.8993 14.2533C15.9024 14.9006 15.3602 15.4421 14.7122 15.4385C14.0686 15.4348 13.5461 14.9099 13.543 14.2631C13.5394 13.6053 14.0655 13.0816 14.7258 13.0847ZM15.1098 14.249C15.1042 14.0323 14.9239 13.8643 14.7036 13.8717C14.4821 13.8791 14.3227 14.0551 14.3332 14.2797C14.3436 14.4889 14.5172 14.6545 14.7227 14.6514C14.9356 14.6483 15.1153 14.4613 15.1098 14.249Z" fill="black"/>
<path d="M17.8567 16.6138C17.3478 16.6243 16.8961 16.4852 16.4998 16.1775C16.2998 16.0224 16.2543 15.7966 16.3823 15.6163C16.5134 15.4317 16.7343 15.4003 16.9496 15.5412C17.5669 15.9455 18.1798 15.9418 18.7927 15.5301C19.0043 15.388 19.2283 15.4218 19.3588 15.6089C19.4806 15.7831 19.4419 16.0089 19.2566 16.1572C18.845 16.487 18.3718 16.6316 17.8567 16.6138Z" fill="black"/>
<ellipse cx="17.7528" cy="25.5692" rx="1.53841" ry="1.53841" fill="#7BB0FF"/>
<path d="M17.2977 25.9205C17.3173 25.8069 17.337 25.6934 17.3566 25.5797C17.3898 25.3871 17.4223 25.1944 17.4564 25.0021C17.4686 24.933 17.5141 24.893 17.5755 24.8923C17.6386 24.8916 17.6865 24.9337 17.6974 25.0047C17.7447 25.3121 17.7909 25.6198 17.8376 25.9273C17.841 25.9502 17.8455 25.973 17.8592 25.9963C17.8797 25.9004 17.9006 25.8048 17.9203 25.7088C17.9447 25.5894 17.9738 25.5646 18.0938 25.5646C18.1375 25.5646 18.1813 25.5673 18.2246 25.5629C18.2387 25.5615 18.2594 25.5441 18.2628 25.5302C18.2788 25.4642 18.2887 25.3969 18.3032 25.3305C18.3164 25.2699 18.3639 25.2309 18.4203 25.2301C18.4789 25.2292 18.5282 25.2695 18.5419 25.3324C18.5541 25.3889 18.5664 25.4455 18.574 25.5027C18.5802 25.5495 18.5974 25.5676 18.6479 25.566C18.7855 25.5618 18.9234 25.5645 19.0611 25.5646C19.1346 25.5646 19.1693 25.5898 19.168 25.6411C19.1667 25.6906 19.1317 25.7153 19.0624 25.7155C18.9112 25.7156 18.76 25.7156 18.6089 25.7155C18.494 25.7155 18.4591 25.6867 18.4364 25.574C18.4338 25.5613 18.4307 25.5485 18.4186 25.5348C18.4135 25.5562 18.408 25.5775 18.4034 25.599C18.3868 25.6787 18.3439 25.7145 18.2627 25.7153C18.2039 25.7159 18.1451 25.716 18.0863 25.7164C18.0832 25.7164 18.08 25.7183 18.0709 25.7211C18.0474 25.8322 18.0232 25.9464 17.9992 26.0605C17.989 26.1087 17.9799 26.1571 17.9686 26.205C17.9534 26.2692 17.906 26.3086 17.8475 26.3076C17.7866 26.3065 17.739 26.2646 17.7287 26.1973C17.6846 25.9117 17.6418 25.626 17.5982 25.3402C17.5925 25.3024 17.5857 25.2648 17.5685 25.2276C17.5441 25.369 17.5194 25.5105 17.4953 25.652C17.471 25.7943 17.4474 25.9369 17.4227 26.0792C17.411 26.147 17.3659 26.1902 17.3061 26.194C17.2475 26.1976 17.1988 26.1599 17.1787 26.0917C17.1144 25.8722 17.051 25.6519 16.987 25.4318C16.9825 25.416 16.9768 25.4006 16.9679 25.3737C16.9295 25.4697 16.8936 25.5536 16.8628 25.6396C16.8434 25.6939 16.8113 25.7181 16.7539 25.7163C16.6666 25.7136 16.5792 25.716 16.4919 25.7155C16.4317 25.715 16.3989 25.6876 16.3989 25.6393C16.3989 25.5903 16.4299 25.5652 16.4919 25.5648C16.5591 25.5643 16.6264 25.5635 16.6935 25.5652C16.7215 25.5659 16.7353 25.5555 16.7453 25.5291C16.7794 25.4387 16.8158 25.3489 16.8518 25.2592C16.8789 25.1915 16.9231 25.1574 16.9778 25.1602C17.0349 25.1631 17.0746 25.1981 17.0954 25.2688C17.155 25.4707 17.2133 25.673 17.2723 25.875C17.277 25.8909 17.282 25.9068 17.2869 25.9228C17.2905 25.9219 17.2941 25.9212 17.2977 25.9205Z" fill="black"/>
<defs>
<linearGradient id="paint0_linear_287_21" x1="18" y1="0" x2="18" y2="36" gradientUnits="userSpaceOnUse">
<stop stop-color="#00EAFF"/>
<stop offset="1" stop-color="#A79CFF"/>
</linearGradient>
</defs>
</svg>
