<svg width="50" height="50" viewBox="0 0 50 50" fill="none" xmlns="http://www.w3.org/2000/svg">
<g clip-path="url(#clip0_189_18)">
<path d="M49.2489 31.0478C45.9098 44.4407 32.3452 52.5913 18.9508 49.2515C5.56187 45.9125 -2.58885 32.347 0.751705 18.955C4.08916 5.56057 17.6539 -2.59092 31.0444 0.748081C44.438 4.08714 52.5879 17.6542 49.2489 31.0478Z" fill="#F7931A"/>
<path d="M16.7765 29.2104C16.6405 29.5479 16.296 30.0541 15.5194 29.8619C15.5468 29.9018 13.5257 29.3643 13.5257 29.3643L12.1641 32.504L15.7335 33.3939C16.3976 33.5603 17.0484 33.7345 17.689 33.8986L16.5538 38.4564L19.2936 39.14L20.4178 34.6306C21.1663 34.8337 21.8928 35.0212 22.6037 35.1978L21.4834 39.686L24.2264 40.3696L25.3615 35.8204C30.0389 36.7055 33.5559 36.3486 35.0364 32.1181C36.2294 28.712 34.9771 26.747 32.5162 25.4658C34.3084 25.0526 35.6583 23.8737 36.0184 21.4385C36.5161 18.112 33.9833 16.3237 30.52 15.1308L31.6434 10.6245L28.9005 9.94092L27.8068 14.3284C27.0857 14.1487 26.345 13.9792 25.6091 13.8112L26.7107 9.39476L23.9693 8.71117L22.8451 13.2158C22.2482 13.0799 21.6623 12.9454 21.0935 12.8041L21.0966 12.79L17.3138 11.8455L16.5841 14.7751C16.5841 14.7751 18.6193 15.2416 18.5763 15.2704C19.6873 15.5478 19.888 16.2829 19.8545 16.8658L16.7765 29.2104ZM29.7513 30.2267C28.9037 33.6329 23.1686 31.7915 21.3092 31.3298L22.8155 25.2916C24.6748 25.7557 30.6372 26.6744 29.7513 30.2267ZM30.5997 21.3893C29.8263 24.4878 25.0529 22.9136 23.5045 22.5276L24.8701 17.0511C26.4185 17.437 31.4052 18.1573 30.5997 21.3893Z" fill="white"/>
</g>
<defs>
<clipPath id="clip0_189_18">
<rect width="50" height="50" fill="white"/>
</clipPath>
</defs>
</svg>
