<svg width="50" height="50" viewBox="0 0 50 50" fill="none" xmlns="http://www.w3.org/2000/svg">
<g clip-path="url(#clip0_189_43)">
<path d="M25 50C38.8071 50 50 38.8071 50 25C50 11.1929 38.8071 0 25 0C11.1929 0 0 11.1929 0 25C0 38.8071 11.1929 50 25 50Z" fill="#5F7EDD"/>
<path d="M24.9977 31.81L16.5977 26.8475L24.9977 38.6875L33.4052 26.8475L24.9977 31.81Z" fill="white"/>
<path d="M33.4002 25.255L24.9977 30.22L16.5952 25.255L24.9977 11.3125L33.4002 25.255Z" fill="white"/>
<path d="M33.4001 25.255L24.9976 21.435V11.3125L33.4001 25.255Z" fill="#C1CCF7"/>
<path d="M33.4051 26.8475L24.9976 38.6875V31.81L33.4051 26.8475Z" fill="#C1CCF7"/>
<path d="M24.9977 21.435V30.22L16.5977 25.255L24.9977 21.435Z" fill="#C1CCF7"/>
<path d="M33.4001 25.255L24.9976 30.22V21.435L33.4001 25.255Z" fill="#8198EE"/>
</g>
<defs>
<clipPath id="clip0_189_43">
<rect width="50" height="50" fill="white"/>
</clipPath>
</defs>
</svg>
