<svg width="50" height="50" viewBox="0 0 50 50" fill="none" xmlns="http://www.w3.org/2000/svg">
<path d="M25.0002 2.08334C12.2918 2.08334 2.0835 12.2917 2.0835 25C2.0835 37.7083 12.2918 47.9167 25.0002 47.9167C37.7085 47.9167 47.9168 37.7083 47.9168 25C47.9168 12.2917 37.7085 2.08334 25.0002 2.08334ZM31.5002 30.2083H23.0002H17.9168H37.5002H31.5002ZM17.9168 28.125H21.0002H30.5002H37.5002H17.9168ZM29.0002 13.5417H23.0002H17.9168H37.5002H29.0002Z" fill="white"/>
<path d="M24.9997 2.08334C12.2913 2.08334 2.08301 12.2917 2.08301 25C2.08301 37.7083 12.2913 47.9167 24.9997 47.9167C37.708 47.9167 47.9163 37.7083 47.9163 25C47.9163 12.2917 37.708 2.08334 24.9997 2.08334ZM32.083 36.4583H12.4997L17.9163 30.2083H37.4997L32.083 36.4583ZM17.9163 28.125L12.4997 21.875H32.083L37.4997 28.125H17.9163ZM32.083 19.7917H12.4997L17.9163 13.5417H37.4997L32.083 19.7917Z" fill="#9945FE"/>
</svg>
