<svg width="30" height="30" viewBox="0 0 30 30" fill="none" xmlns="http://www.w3.org/2000/svg">
<g clip-path="url(#clip0_10_7355)">
<path d="M21.985 10.73L22.8638 11.6175L15.315 19.095C14.7112 19.6938 13.9138 19.9937 13.1175 19.9937C12.3263 19.9937 11.535 19.6987 10.9312 19.1075L7.1375 15.3687L8.01375 14.4788L11.8062 18.2162C12.5325 18.9263 13.7112 18.9225 14.4362 18.2075L21.985 10.73ZM30 15C30 23.2712 23.2712 30 15 30C6.72875 30 0 23.2712 0 15C0 6.72875 6.72875 0 15 0C23.2712 0 30 6.72875 30 15ZM28.75 15C28.75 7.41875 22.5812 1.25 15 1.25C7.41875 1.25 1.25 7.41875 1.25 15C1.25 22.5812 7.41875 28.75 15 28.75C22.5812 28.75 28.75 22.5812 28.75 15Z" fill="#1EF255"/>
</g>
<defs>
<clipPath id="clip0_10_7355">
<rect width="30" height="30" fill="white"/>
</clipPath>
</defs>
</svg>
