<svg width="728" height="162" viewBox="0 0 728 162" fill="none" xmlns="http://www.w3.org/2000/svg">
<path d="M16.2422 99H2.15625V65.5312H16.2422V68.5312H5.41406V80.625H15.5156V83.625H5.41406V96H16.2422V99ZM20.6719 99H17.7422L22.2891 87.1875L17.8828 76.1953H20.7891L22.5703 81.0469L24.4922 85.7812H25.5703L27.6094 81.0469L29.4609 76.1953H32.3438L27.8203 87.2344L32.4609 99H29.5547L27.3281 93.0469L25.5703 88.3125H24.5625L22.875 93.0469L20.6719 99ZM40.5469 99.2578C38.6406 99.2578 37.2266 98.8828 36.3047 98.1328C35.3984 97.3828 34.8672 96.2109 34.7109 94.6172C34.6953 94.3047 34.6719 93.9922 34.6406 93.6797C34.625 93.3672 34.6328 93.0625 34.6641 92.7656C34.7734 91.375 35.2109 90.2109 35.9766 89.2734C36.7422 88.3203 38.1953 87.4531 40.3359 86.6719C41.2109 86.3594 42.1328 86.0781 43.1016 85.8281C44.0703 85.5781 45.0312 85.3359 45.9844 85.1016V80.7656C45.9844 80 45.6953 79.4375 45.1172 79.0781C44.5391 78.7031 43.5312 78.5156 42.0938 78.5156C40.8438 78.5156 39.8906 78.6719 39.2344 78.9844C38.5938 79.2969 38.2422 79.8672 38.1797 80.6953C38.1484 81.0859 38.1328 81.6484 38.1328 82.3828C38.1328 83.1016 38.1484 83.7109 38.1797 84.2109H35.25C35.2188 83.8203 35.1875 83.3125 35.1562 82.6875C35.125 82.0625 35.1328 81.5078 35.1797 81.0234C35.2578 79.2109 35.8438 77.9062 36.9375 77.1094C38.0469 76.2969 39.8047 75.8906 42.2109 75.8906C44.7266 75.8906 46.4688 76.3281 47.4375 77.2031C48.4219 78.0781 48.9219 79.5156 48.9375 81.5156V99H45.9844V96.8438H45.3281C44.9375 97.625 44.375 98.2266 43.6406 98.6484C42.9219 99.0547 41.8906 99.2578 40.5469 99.2578ZM41.2969 96.7266C43.5469 96.7266 45.1016 96.0547 45.9609 94.7109V87.6094C45.2109 87.7656 44.4375 87.9531 43.6406 88.1719C42.8594 88.375 41.9375 88.6562 40.875 89.0156C39.6094 89.4844 38.7656 90.0234 38.3438 90.6328C37.9219 91.2422 37.6797 91.9531 37.6172 92.7656C37.6328 93 37.6406 93.2578 37.6406 93.5391C37.6562 93.8047 37.6797 94.0859 37.7109 94.3828C37.8203 95.1328 38.1953 95.7109 38.8359 96.1172C39.4766 96.5234 40.2969 96.7266 41.2969 96.7266ZM56.2734 99H53.25V76.1953H56.2734V78.3281H56.8594C57.3906 77.5 58.0078 76.8906 58.7109 76.5C59.4297 76.0938 60.4141 75.8906 61.6641 75.8906C64.1797 75.8906 65.7266 76.7656 66.3047 78.5156H66.9375C67.4531 77.7031 68.1094 77.0625 68.9062 76.5938C69.7031 76.125 70.7266 75.8906 71.9766 75.8906C73.6484 75.8906 74.8984 76.2812 75.7266 77.0625C76.5547 77.8281 76.9688 79.1172 76.9688 80.9297V99H73.9688V80.6719C73.9375 79.8906 73.6953 79.3281 73.2422 78.9844C72.7891 78.625 72.0391 78.4453 70.9922 78.4453C68.9141 78.4453 67.4688 79.1797 66.6562 80.6484V99H63.6562V80.6719C63.625 79.8906 63.3828 79.3281 62.9297 78.9844C62.4766 78.625 61.7422 78.4453 60.7266 78.4453C58.5078 78.4453 57.0234 79.1562 56.2734 80.5781V99ZM84.2578 106.594H81.2344V76.1953H84.2578V78.3281H84.9141C85.4453 77.5 86.0781 76.8906 86.8125 76.5C87.5625 76.0938 88.5859 75.8906 89.8828 75.8906C91.6641 75.8906 92.9766 76.2812 93.8203 77.0625C94.6797 77.8281 95.1328 79.1172 95.1797 80.9297C95.2266 81.7266 95.2578 82.6953 95.2734 83.8359C95.2891 84.9609 95.2969 86.1562 95.2969 87.4219C95.2969 88.6719 95.2891 89.8906 95.2734 91.0781C95.2578 92.2656 95.2266 93.3203 95.1797 94.2422C95.1328 96.0391 94.6641 97.3281 93.7734 98.1094C92.8828 98.8906 91.5469 99.2812 89.7656 99.2812C88.5938 99.2812 87.6328 99.0938 86.8828 98.7188C86.1328 98.3281 85.4766 97.7031 84.9141 96.8438H84.2578V106.594ZM88.9219 96.7266C91.0312 96.7266 92.1172 95.9844 92.1797 94.5C92.3047 92.0781 92.3516 89.6875 92.3203 87.3281C92.3047 84.9688 92.2578 82.75 92.1797 80.6719C92.1484 79.8906 91.8984 79.3281 91.4297 78.9844C90.9609 78.625 90.1719 78.4453 89.0625 78.4453C86.6719 78.4453 85.0703 79.1562 84.2578 80.5781V94.5938C84.6797 95.3594 85.25 95.9062 85.9688 96.2344C86.7031 96.5625 87.6875 96.7266 88.9219 96.7266ZM102.938 99H99.8906V68.5781H102.938V99ZM114.961 99.2812C112.383 99.2812 110.539 98.875 109.43 98.0625C108.336 97.25 107.75 95.9219 107.672 94.0781C107.609 92.9219 107.562 91.5625 107.531 90C107.516 88.4375 107.516 86.8672 107.531 85.2891C107.562 83.7109 107.609 82.3359 107.672 81.1641C107.75 79.2734 108.352 77.9219 109.477 77.1094C110.617 76.2969 112.445 75.8906 114.961 75.8906C117.336 75.8906 119.055 76.2891 120.117 77.0859C121.18 77.8828 121.766 79.1953 121.875 81.0234C121.906 81.5703 121.938 82.5234 121.969 83.8828C122 85.2422 121.953 86.6875 121.828 88.2188H110.602C110.602 89.2031 110.609 90.2031 110.625 91.2188C110.641 92.2344 110.672 93.2891 110.719 94.3828C110.734 95.2422 111.062 95.8359 111.703 96.1641C112.344 96.4922 113.398 96.6562 114.867 96.6562C116.32 96.6562 117.344 96.4922 117.938 96.1641C118.531 95.8359 118.859 95.2422 118.922 94.3828C118.969 93.5234 118.969 92.3516 118.922 90.8672H121.828C121.906 91.3203 121.938 91.8516 121.922 92.4609C121.922 93.0547 121.906 93.5938 121.875 94.0781C121.766 95.9219 121.203 97.25 120.188 98.0625C119.188 98.875 117.445 99.2812 114.961 99.2812ZM110.602 85.7344H118.969C119 84.6719 119.016 83.6562 119.016 82.6875C119.016 81.7188 118.984 81.0547 118.922 80.6953C118.859 79.9141 118.523 79.3594 117.914 79.0312C117.305 78.6875 116.32 78.5156 114.961 78.5156C113.445 78.5156 112.359 78.6875 111.703 79.0312C111.062 79.3594 110.734 79.9141 110.719 80.6953C110.672 81.6016 110.633 82.4688 110.602 83.2969C110.586 84.125 110.586 84.9375 110.602 85.7344Z" fill="white"/>
<rect x="148.5" y="49.5" width="185" height="65" rx="11.5" stroke="url(#paint0_linear_116_11)"/>
<rect x="478.5" y="0.5" width="153" height="49" rx="11.5" stroke="url(#paint1_linear_116_11)"/>
<rect x="478.5" y="112.5" width="249" height="49" rx="11.5" stroke="url(#paint2_linear_116_11)"/>
<path d="M178.406 85.5352C178.406 85.2305 178.359 84.957 178.266 84.7148C178.18 84.4648 178.016 84.2383 177.773 84.0352C177.531 83.8242 177.191 83.6172 176.754 83.4141C176.316 83.2109 175.75 83 175.055 82.7812C174.281 82.5312 173.547 82.25 172.852 81.9375C172.164 81.625 171.555 81.2617 171.023 80.8477C170.5 80.4258 170.086 79.9375 169.781 79.3828C169.484 78.8281 169.336 78.1836 169.336 77.4492C169.336 76.7383 169.492 76.0938 169.805 75.5156C170.117 74.9297 170.555 74.4297 171.117 74.0156C171.68 73.5938 172.344 73.2695 173.109 73.043C173.883 72.8164 174.73 72.7031 175.652 72.7031C176.91 72.7031 178.008 72.9297 178.945 73.3828C179.883 73.8359 180.609 74.457 181.125 75.2461C181.648 76.0352 181.91 76.9375 181.91 77.9531H178.418C178.418 77.4531 178.312 77.0156 178.102 76.6406C177.898 76.2578 177.586 75.957 177.164 75.7383C176.75 75.5195 176.227 75.4102 175.594 75.4102C174.984 75.4102 174.477 75.5039 174.07 75.6914C173.664 75.8711 173.359 76.1172 173.156 76.4297C172.953 76.7344 172.852 77.0781 172.852 77.4609C172.852 77.75 172.922 78.0117 173.062 78.2461C173.211 78.4805 173.43 78.6992 173.719 78.9023C174.008 79.1055 174.363 79.2969 174.785 79.4766C175.207 79.6562 175.695 79.832 176.25 80.0039C177.18 80.2852 177.996 80.6016 178.699 80.9531C179.41 81.3047 180.004 81.6992 180.48 82.1367C180.957 82.5742 181.316 83.0703 181.559 83.625C181.801 84.1797 181.922 84.8086 181.922 85.5117C181.922 86.2539 181.777 86.918 181.488 87.5039C181.199 88.0898 180.781 88.5859 180.234 88.9922C179.688 89.3984 179.035 89.707 178.277 89.918C177.52 90.1289 176.672 90.2344 175.734 90.2344C174.891 90.2344 174.059 90.125 173.238 89.9062C172.418 89.6797 171.672 89.3398 171 88.8867C170.336 88.4336 169.805 87.8555 169.406 87.1523C169.008 86.4492 168.809 85.6172 168.809 84.6562H172.336C172.336 85.1875 172.418 85.6367 172.582 86.0039C172.746 86.3711 172.977 86.668 173.273 86.8945C173.578 87.1211 173.938 87.2852 174.352 87.3867C174.773 87.4883 175.234 87.5391 175.734 87.5391C176.344 87.5391 176.844 87.4531 177.234 87.2812C177.633 87.1094 177.926 86.8711 178.113 86.5664C178.309 86.2617 178.406 85.918 178.406 85.5352ZM190.312 77.3203V79.7109H182.93V77.3203H190.312ZM184.758 74.1914H188.133V86.1797C188.133 86.5469 188.18 86.8281 188.273 87.0234C188.375 87.2188 188.523 87.3555 188.719 87.4336C188.914 87.5039 189.16 87.5391 189.457 87.5391C189.668 87.5391 189.855 87.5312 190.02 87.5156C190.191 87.4922 190.336 87.4688 190.453 87.4453L190.465 89.9297C190.176 90.0234 189.863 90.0977 189.527 90.1523C189.191 90.207 188.82 90.2344 188.414 90.2344C187.672 90.2344 187.023 90.1133 186.469 89.8711C185.922 89.6211 185.5 89.2227 185.203 88.6758C184.906 88.1289 184.758 87.4102 184.758 86.5195V74.1914ZM199.078 87.1406V81.4922C199.078 81.0859 199.012 80.7383 198.879 80.4492C198.746 80.1523 198.539 79.9219 198.258 79.7578C197.984 79.5938 197.629 79.5117 197.191 79.5117C196.816 79.5117 196.492 79.5781 196.219 79.7109C195.945 79.8359 195.734 80.0195 195.586 80.2617C195.438 80.4961 195.363 80.7734 195.363 81.0938H191.988C191.988 80.5547 192.113 80.043 192.363 79.5586C192.613 79.0742 192.977 78.6484 193.453 78.2812C193.93 77.9062 194.496 77.6133 195.152 77.4023C195.816 77.1914 196.559 77.0859 197.379 77.0859C198.363 77.0859 199.238 77.25 200.004 77.5781C200.77 77.9062 201.371 78.3984 201.809 79.0547C202.254 79.7109 202.477 80.5312 202.477 81.5156V86.9414C202.477 87.6367 202.52 88.207 202.605 88.6523C202.691 89.0898 202.816 89.4727 202.98 89.8008V90H199.57C199.406 89.6562 199.281 89.2266 199.195 88.7109C199.117 88.1875 199.078 87.6641 199.078 87.1406ZM199.523 82.2773L199.547 84.1875H197.66C197.215 84.1875 196.828 84.2383 196.5 84.3398C196.172 84.4414 195.902 84.5859 195.691 84.7734C195.48 84.9531 195.324 85.1641 195.223 85.4062C195.129 85.6484 195.082 85.9141 195.082 86.2031C195.082 86.4922 195.148 86.7539 195.281 86.9883C195.414 87.2148 195.605 87.3945 195.855 87.5273C196.105 87.6523 196.398 87.7148 196.734 87.7148C197.242 87.7148 197.684 87.6133 198.059 87.4102C198.434 87.207 198.723 86.957 198.926 86.6602C199.137 86.3633 199.246 86.082 199.254 85.8164L200.145 87.2461C200.02 87.5664 199.848 87.8984 199.629 88.2422C199.418 88.5859 199.148 88.9102 198.82 89.2148C198.492 89.5117 198.098 89.7578 197.637 89.9531C197.176 90.1406 196.629 90.2344 195.996 90.2344C195.191 90.2344 194.461 90.0742 193.805 89.7539C193.156 89.4258 192.641 88.9766 192.258 88.4062C191.883 87.8281 191.695 87.1719 191.695 86.4375C191.695 85.7734 191.82 85.1836 192.07 84.668C192.32 84.1523 192.688 83.7188 193.172 83.3672C193.664 83.0078 194.277 82.7383 195.012 82.5586C195.746 82.3711 196.598 82.2773 197.566 82.2773H199.523ZM208.453 71.9883V90H205.078V71.9883H208.453ZM216.445 77.3203L210.938 83.6016L207.984 86.5898L206.754 84.1523L209.098 81.1758L212.391 77.3203H216.445ZM212.941 90L209.191 84.1406L211.523 82.1016L216.832 90H212.941ZM223.5 90.2344C222.516 90.2344 221.633 90.0781 220.852 89.7656C220.07 89.4453 219.406 89.0039 218.859 88.4414C218.32 87.8789 217.906 87.2266 217.617 86.4844C217.328 85.7344 217.184 84.9375 217.184 84.0938V83.625C217.184 82.6641 217.32 81.7852 217.594 80.9883C217.867 80.1914 218.258 79.5 218.766 78.9141C219.281 78.3281 219.906 77.8789 220.641 77.5664C221.375 77.2461 222.203 77.0859 223.125 77.0859C224.023 77.0859 224.82 77.2344 225.516 77.5312C226.211 77.8281 226.793 78.25 227.262 78.7969C227.738 79.3438 228.098 80 228.34 80.7656C228.582 81.5234 228.703 82.3672 228.703 83.2969V84.7031H218.625V82.4531H225.387V82.1953C225.387 81.7266 225.301 81.3086 225.129 80.9414C224.965 80.5664 224.715 80.2695 224.379 80.0508C224.043 79.832 223.613 79.7227 223.09 79.7227C222.645 79.7227 222.262 79.8203 221.941 80.0156C221.621 80.2109 221.359 80.4844 221.156 80.8359C220.961 81.1875 220.812 81.6016 220.711 82.0781C220.617 82.5469 220.57 83.0625 220.57 83.625V84.0938C220.57 84.6016 220.641 85.0703 220.781 85.5C220.93 85.9297 221.137 86.3008 221.402 86.6133C221.676 86.9258 222.004 87.168 222.387 87.3398C222.777 87.5117 223.219 87.5977 223.711 87.5977C224.32 87.5977 224.887 87.4805 225.41 87.2461C225.941 87.0039 226.398 86.6406 226.781 86.1562L228.422 87.9375C228.156 88.3203 227.793 88.6875 227.332 89.0391C226.879 89.3906 226.332 89.6797 225.691 89.9062C225.051 90.125 224.32 90.2344 223.5 90.2344ZM244.688 72.9023V90H241.312V76.793L237.258 78.082V75.4219L244.324 72.9023H244.688ZM261.727 79.9688V82.9219C261.727 84.2031 261.59 85.3086 261.316 86.2383C261.043 87.1602 260.648 87.918 260.133 88.5117C259.625 89.0977 259.02 89.5312 258.316 89.8125C257.613 90.0938 256.832 90.2344 255.973 90.2344C255.285 90.2344 254.645 90.1484 254.051 89.9766C253.457 89.7969 252.922 89.5195 252.445 89.1445C251.977 88.7695 251.57 88.2969 251.227 87.7266C250.891 87.1484 250.633 86.4609 250.453 85.6641C250.273 84.8672 250.184 83.9531 250.184 82.9219V79.9688C250.184 78.6875 250.32 77.5898 250.594 76.6758C250.875 75.7539 251.27 75 251.777 74.4141C252.293 73.8281 252.902 73.3984 253.605 73.125C254.309 72.8438 255.09 72.7031 255.949 72.7031C256.637 72.7031 257.273 72.793 257.859 72.9727C258.453 73.1445 258.988 73.4141 259.465 73.7812C259.941 74.1484 260.348 74.6211 260.684 75.1992C261.02 75.7695 261.277 76.4531 261.457 77.25C261.637 78.0391 261.727 78.9453 261.727 79.9688ZM258.34 83.3672V79.5117C258.34 78.8945 258.305 78.3555 258.234 77.8945C258.172 77.4336 258.074 77.043 257.941 76.7227C257.809 76.3945 257.645 76.1289 257.449 75.9258C257.254 75.7227 257.031 75.5742 256.781 75.4805C256.531 75.3867 256.254 75.3398 255.949 75.3398C255.566 75.3398 255.227 75.4141 254.93 75.5625C254.641 75.7109 254.395 75.9492 254.191 76.2773C253.988 76.5977 253.832 77.0273 253.723 77.5664C253.621 78.0977 253.57 78.7461 253.57 79.5117V83.3672C253.57 83.9844 253.602 84.5273 253.664 84.9961C253.734 85.4648 253.836 85.8672 253.969 86.2031C254.109 86.5312 254.273 86.8008 254.461 87.0117C254.656 87.2148 254.879 87.3633 255.129 87.457C255.387 87.5508 255.668 87.5977 255.973 87.5977C256.348 87.5977 256.68 87.5234 256.969 87.375C257.266 87.2188 257.516 86.9766 257.719 86.6484C257.93 86.3125 258.086 85.875 258.188 85.3359C258.289 84.7969 258.34 84.1406 258.34 83.3672ZM275.508 79.9688V82.9219C275.508 84.2031 275.371 85.3086 275.098 86.2383C274.824 87.1602 274.43 87.918 273.914 88.5117C273.406 89.0977 272.801 89.5312 272.098 89.8125C271.395 90.0938 270.613 90.2344 269.754 90.2344C269.066 90.2344 268.426 90.1484 267.832 89.9766C267.238 89.7969 266.703 89.5195 266.227 89.1445C265.758 88.7695 265.352 88.2969 265.008 87.7266C264.672 87.1484 264.414 86.4609 264.234 85.6641C264.055 84.8672 263.965 83.9531 263.965 82.9219V79.9688C263.965 78.6875 264.102 77.5898 264.375 76.6758C264.656 75.7539 265.051 75 265.559 74.4141C266.074 73.8281 266.684 73.3984 267.387 73.125C268.09 72.8438 268.871 72.7031 269.73 72.7031C270.418 72.7031 271.055 72.793 271.641 72.9727C272.234 73.1445 272.77 73.4141 273.246 73.7812C273.723 74.1484 274.129 74.6211 274.465 75.1992C274.801 75.7695 275.059 76.4531 275.238 77.25C275.418 78.0391 275.508 78.9453 275.508 79.9688ZM272.121 83.3672V79.5117C272.121 78.8945 272.086 78.3555 272.016 77.8945C271.953 77.4336 271.855 77.043 271.723 76.7227C271.59 76.3945 271.426 76.1289 271.23 75.9258C271.035 75.7227 270.812 75.5742 270.562 75.4805C270.312 75.3867 270.035 75.3398 269.73 75.3398C269.348 75.3398 269.008 75.4141 268.711 75.5625C268.422 75.7109 268.176 75.9492 267.973 76.2773C267.77 76.5977 267.613 77.0273 267.504 77.5664C267.402 78.0977 267.352 78.7461 267.352 79.5117V83.3672C267.352 83.9844 267.383 84.5273 267.445 84.9961C267.516 85.4648 267.617 85.8672 267.75 86.2031C267.891 86.5312 268.055 86.8008 268.242 87.0117C268.438 87.2148 268.66 87.3633 268.91 87.457C269.168 87.5508 269.449 87.5977 269.754 87.5977C270.129 87.5977 270.461 87.5234 270.75 87.375C271.047 87.2188 271.297 86.9766 271.5 86.6484C271.711 86.3125 271.867 85.875 271.969 85.3359C272.07 84.7969 272.121 84.1406 272.121 83.3672ZM289.371 90H285.656L285.68 87.2578H289.371C290.293 87.2578 291.07 87.0508 291.703 86.6367C292.336 86.2148 292.812 85.6016 293.133 84.7969C293.461 83.9922 293.625 83.0195 293.625 81.8789V81.0469C293.625 80.1719 293.531 79.4023 293.344 78.7383C293.164 78.0742 292.895 77.5156 292.535 77.0625C292.176 76.6094 291.734 76.2695 291.211 76.043C290.688 75.8086 290.086 75.6914 289.406 75.6914H285.586V72.9375H289.406C290.547 72.9375 291.59 73.1328 292.535 73.5234C293.488 73.9062 294.312 74.457 295.008 75.1758C295.703 75.8945 296.238 76.7539 296.613 77.7539C296.996 78.7461 297.188 79.8516 297.188 81.0703V81.8789C297.188 83.0898 296.996 84.1953 296.613 85.1953C296.238 86.1953 295.703 87.0547 295.008 87.7734C294.32 88.4844 293.496 89.0352 292.535 89.4258C291.582 89.8086 290.527 90 289.371 90ZM287.648 72.9375V90H284.133V72.9375H287.648ZM309.633 84.3398H313.137C313.066 85.4883 312.75 86.5078 312.188 87.3984C311.633 88.2891 310.855 88.9844 309.855 89.4844C308.863 89.9844 307.668 90.2344 306.27 90.2344C305.176 90.2344 304.195 90.0469 303.328 89.6719C302.461 89.2891 301.719 88.7422 301.102 88.0312C300.492 87.3203 300.027 86.4609 299.707 85.4531C299.387 84.4453 299.227 83.3164 299.227 82.0664V80.8828C299.227 79.6328 299.391 78.5039 299.719 77.4961C300.055 76.4805 300.531 75.6172 301.148 74.9062C301.773 74.1953 302.52 73.6484 303.387 73.2656C304.254 72.8828 305.223 72.6914 306.293 72.6914C307.715 72.6914 308.914 72.9492 309.891 73.4648C310.875 73.9805 311.637 74.6914 312.176 75.5977C312.723 76.5039 313.051 77.5352 313.16 78.6914H309.645C309.605 78.0039 309.469 77.4219 309.234 76.9453C309 76.4609 308.645 76.0977 308.168 75.8555C307.699 75.6055 307.074 75.4805 306.293 75.4805C305.707 75.4805 305.195 75.5898 304.758 75.8086C304.32 76.0273 303.953 76.3594 303.656 76.8047C303.359 77.25 303.137 77.8125 302.988 78.4922C302.848 79.1641 302.777 79.9531 302.777 80.8594V82.0664C302.777 82.9492 302.844 83.7266 302.977 84.3984C303.109 85.0625 303.312 85.625 303.586 86.0859C303.867 86.5391 304.227 86.8828 304.664 87.1172C305.109 87.3438 305.645 87.457 306.27 87.457C307.004 87.457 307.609 87.3398 308.086 87.1055C308.562 86.8711 308.926 86.5234 309.176 86.0625C309.434 85.6016 309.586 85.0273 309.633 84.3398Z" fill="white"/>
<path d="M496.681 29.6377H496.848C497.785 29.6377 498.547 29.5059 499.133 29.2422C499.719 28.9785 500.17 28.624 500.486 28.1787C500.803 27.7334 501.02 27.2324 501.137 26.6758C501.254 26.1133 501.312 25.5361 501.312 24.9443V22.9844C501.312 22.4043 501.245 21.8887 501.11 21.4375C500.981 20.9863 500.8 20.6084 500.565 20.3037C500.337 19.999 500.076 19.7676 499.783 19.6094C499.49 19.4512 499.18 19.3721 498.852 19.3721C498.477 19.3721 498.14 19.4482 497.841 19.6006C497.548 19.7471 497.299 19.9551 497.094 20.2246C496.895 20.4941 496.742 20.8105 496.637 21.1738C496.531 21.5371 496.479 21.9326 496.479 22.3604C496.479 22.7412 496.525 23.1104 496.619 23.4678C496.713 23.8252 496.856 24.1475 497.05 24.4346C497.243 24.7217 497.483 24.9502 497.771 25.1201C498.063 25.2842 498.406 25.3662 498.799 25.3662C499.162 25.3662 499.502 25.2959 499.818 25.1553C500.141 25.0088 500.425 24.8125 500.671 24.5664C500.923 24.3145 501.122 24.0303 501.269 23.7139C501.421 23.3975 501.509 23.0664 501.532 22.7207H502.306C502.306 23.207 502.209 23.6875 502.016 24.1621C501.828 24.6309 501.564 25.0586 501.225 25.4453C500.885 25.832 500.486 26.1426 500.029 26.377C499.572 26.6055 499.074 26.7197 498.535 26.7197C497.902 26.7197 497.354 26.5967 496.892 26.3506C496.429 26.1045 496.048 25.7764 495.749 25.3662C495.456 24.9561 495.236 24.499 495.09 23.9951C494.949 23.4854 494.879 22.9697 494.879 22.4482C494.879 21.8389 494.964 21.2676 495.134 20.7344C495.304 20.2012 495.556 19.7324 495.89 19.3281C496.224 18.918 496.637 18.5986 497.129 18.3701C497.627 18.1416 498.201 18.0273 498.852 18.0273C499.584 18.0273 500.208 18.1738 500.724 18.4668C501.239 18.7598 501.658 19.1523 501.98 19.6445C502.309 20.1367 502.549 20.6904 502.701 21.3057C502.854 21.9209 502.93 22.5537 502.93 23.2041V23.793C502.93 24.4551 502.886 25.1289 502.798 25.8145C502.716 26.4941 502.555 27.1445 502.314 27.7656C502.08 28.3867 501.737 28.9434 501.286 29.4355C500.835 29.9219 500.246 30.3086 499.52 30.5957C498.799 30.877 497.908 31.0176 496.848 31.0176H496.681V29.6377ZM507.245 24.9092L505.944 24.5752L506.586 18.2031H513.151V19.7061H507.966L507.579 23.1865C507.813 23.0518 508.109 22.9258 508.467 22.8086C508.83 22.6914 509.246 22.6328 509.715 22.6328C510.307 22.6328 510.837 22.7354 511.306 22.9404C511.774 23.1396 512.173 23.4268 512.501 23.8018C512.835 24.1768 513.09 24.6279 513.266 25.1553C513.441 25.6826 513.529 26.2715 513.529 26.9219C513.529 27.5371 513.444 28.1025 513.274 28.6182C513.11 29.1338 512.861 29.585 512.527 29.9717C512.193 30.3525 511.771 30.6484 511.262 30.8594C510.758 31.0703 510.163 31.1758 509.478 31.1758C508.962 31.1758 508.473 31.1055 508.01 30.9648C507.553 30.8184 507.143 30.5986 506.779 30.3057C506.422 30.0068 506.129 29.6377 505.9 29.1982C505.678 28.7529 505.537 28.2314 505.479 27.6338H507.025C507.096 28.1143 507.236 28.5186 507.447 28.8467C507.658 29.1748 507.934 29.4238 508.273 29.5938C508.619 29.7578 509.021 29.8398 509.478 29.8398C509.864 29.8398 510.207 29.7725 510.506 29.6377C510.805 29.5029 511.057 29.3096 511.262 29.0576C511.467 28.8057 511.622 28.501 511.728 28.1436C511.839 27.7861 511.895 27.3848 511.895 26.9395C511.895 26.5352 511.839 26.1602 511.728 25.8145C511.616 25.4688 511.449 25.167 511.227 24.9092C511.01 24.6514 510.743 24.4521 510.427 24.3115C510.11 24.165 509.747 24.0918 509.337 24.0918C508.792 24.0918 508.379 24.165 508.098 24.3115C507.822 24.458 507.538 24.6572 507.245 24.9092ZM523.663 31H520.991L521.009 29.6201H523.663C524.577 29.6201 525.339 29.4297 525.948 29.0488C526.558 28.6621 527.015 28.123 527.319 27.4316C527.63 26.7344 527.785 25.9199 527.785 24.9883V24.2061C527.785 23.4736 527.697 22.8232 527.521 22.2549C527.346 21.6807 527.088 21.1973 526.748 20.8047C526.408 20.4062 525.992 20.1045 525.5 19.8994C525.014 19.6943 524.454 19.5918 523.821 19.5918H520.938V18.2031H523.821C524.659 18.2031 525.424 18.3438 526.115 18.625C526.807 18.9004 527.401 19.3018 527.899 19.8291C528.403 20.3506 528.79 20.9834 529.06 21.7275C529.329 22.4658 529.464 23.2979 529.464 24.2236V24.9883C529.464 25.9141 529.329 26.749 529.06 27.4932C528.79 28.2314 528.4 28.8613 527.891 29.3828C527.387 29.9043 526.777 30.3057 526.062 30.5869C525.354 30.8623 524.554 31 523.663 31ZM521.896 18.2031V31H520.2V18.2031H521.896ZM539.738 26.9307H541.426C541.338 27.7393 541.106 28.4629 540.731 29.1016C540.356 29.7402 539.826 30.2471 539.141 30.6221C538.455 30.9912 537.6 31.1758 536.574 31.1758C535.824 31.1758 535.142 31.0352 534.526 30.7539C533.917 30.4727 533.393 30.0742 532.953 29.5586C532.514 29.0371 532.174 28.4131 531.934 27.6865C531.699 26.9541 531.582 26.1396 531.582 25.2432V23.9688C531.582 23.0723 531.699 22.2607 531.934 21.5342C532.174 20.8018 532.517 20.1748 532.962 19.6533C533.413 19.1318 533.955 18.7305 534.588 18.4492C535.221 18.168 535.933 18.0273 536.724 18.0273C537.69 18.0273 538.508 18.209 539.176 18.5723C539.844 18.9355 540.362 19.4395 540.731 20.084C541.106 20.7227 541.338 21.4639 541.426 22.3076H539.738C539.656 21.71 539.504 21.1973 539.281 20.7695C539.059 20.3359 538.742 20.002 538.332 19.7676C537.922 19.5332 537.386 19.416 536.724 19.416C536.155 19.416 535.654 19.5244 535.221 19.7412C534.793 19.958 534.433 20.2656 534.14 20.6641C533.853 21.0625 533.636 21.54 533.489 22.0967C533.343 22.6533 533.27 23.2715 533.27 23.9512V25.2432C533.27 25.8701 533.334 26.459 533.463 27.0098C533.598 27.5605 533.8 28.0439 534.069 28.46C534.339 28.876 534.682 29.2041 535.098 29.4443C535.514 29.6787 536.006 29.7959 536.574 29.7959C537.295 29.7959 537.869 29.6816 538.297 29.4531C538.725 29.2246 539.047 28.8965 539.264 28.4688C539.486 28.041 539.645 27.5283 539.738 26.9307ZM549.723 21.4902V31H548.088V21.4902H549.723ZM547.965 18.9678C547.965 18.7041 548.044 18.4814 548.202 18.2998C548.366 18.1182 548.606 18.0273 548.923 18.0273C549.233 18.0273 549.471 18.1182 549.635 18.2998C549.805 18.4814 549.89 18.7041 549.89 18.9678C549.89 19.2197 549.805 19.4365 549.635 19.6182C549.471 19.7939 549.233 19.8818 548.923 19.8818C548.606 19.8818 548.366 19.7939 548.202 19.6182C548.044 19.4365 547.965 19.2197 547.965 18.9678ZM557.87 28.4775C557.87 28.2432 557.817 28.0264 557.712 27.8271C557.612 27.6221 557.404 27.4375 557.088 27.2734C556.777 27.1035 556.309 26.957 555.682 26.834C555.154 26.7227 554.677 26.5908 554.249 26.4385C553.827 26.2861 553.467 26.1016 553.168 25.8848C552.875 25.668 552.649 25.4131 552.491 25.1201C552.333 24.8271 552.254 24.4844 552.254 24.0918C552.254 23.7168 552.336 23.3623 552.5 23.0283C552.67 22.6943 552.907 22.3984 553.212 22.1406C553.522 21.8828 553.895 21.6807 554.328 21.5342C554.762 21.3877 555.245 21.3145 555.778 21.3145C556.54 21.3145 557.19 21.4492 557.729 21.7188C558.269 21.9883 558.682 22.3486 558.969 22.7998C559.256 23.2451 559.399 23.7402 559.399 24.2852H557.773C557.773 24.0215 557.694 23.7666 557.536 23.5205C557.384 23.2686 557.158 23.0605 556.859 22.8965C556.566 22.7324 556.206 22.6504 555.778 22.6504C555.327 22.6504 554.961 22.7207 554.68 22.8613C554.404 22.9961 554.202 23.1689 554.073 23.3799C553.95 23.5908 553.889 23.8135 553.889 24.0479C553.889 24.2236 553.918 24.3818 553.977 24.5225C554.041 24.6572 554.152 24.7832 554.311 24.9004C554.469 25.0117 554.691 25.1172 554.979 25.2168C555.266 25.3164 555.632 25.416 556.077 25.5156C556.856 25.6914 557.498 25.9023 558.002 26.1484C558.506 26.3945 558.881 26.6963 559.127 27.0537C559.373 27.4111 559.496 27.8447 559.496 28.3545C559.496 28.7705 559.408 29.1514 559.232 29.4971C559.062 29.8428 558.813 30.1416 558.485 30.3936C558.163 30.6396 557.776 30.833 557.325 30.9736C556.88 31.1084 556.379 31.1758 555.822 31.1758C554.984 31.1758 554.275 31.0264 553.695 30.7275C553.115 30.4287 552.676 30.042 552.377 29.5674C552.078 29.0928 551.929 28.5918 551.929 28.0645H553.563C553.587 28.5098 553.716 28.8643 553.95 29.1279C554.185 29.3857 554.472 29.5703 554.812 29.6816C555.151 29.7871 555.488 29.8398 555.822 29.8398C556.268 29.8398 556.64 29.7812 556.938 29.6641C557.243 29.5469 557.475 29.3857 557.633 29.1807C557.791 28.9756 557.87 28.7412 557.87 28.4775ZM571.634 28.4775C571.634 28.2432 571.581 28.0264 571.476 27.8271C571.376 27.6221 571.168 27.4375 570.852 27.2734C570.541 27.1035 570.072 26.957 569.445 26.834C568.918 26.7227 568.44 26.5908 568.013 26.4385C567.591 26.2861 567.23 26.1016 566.932 25.8848C566.639 25.668 566.413 25.4131 566.255 25.1201C566.097 24.8271 566.018 24.4844 566.018 24.0918C566.018 23.7168 566.1 23.3623 566.264 23.0283C566.434 22.6943 566.671 22.3984 566.976 22.1406C567.286 21.8828 567.658 21.6807 568.092 21.5342C568.525 21.3877 569.009 21.3145 569.542 21.3145C570.304 21.3145 570.954 21.4492 571.493 21.7188C572.032 21.9883 572.445 22.3486 572.732 22.7998C573.02 23.2451 573.163 23.7402 573.163 24.2852H571.537C571.537 24.0215 571.458 23.7666 571.3 23.5205C571.147 23.2686 570.922 23.0605 570.623 22.8965C570.33 22.7324 569.97 22.6504 569.542 22.6504C569.091 22.6504 568.725 22.7207 568.443 22.8613C568.168 22.9961 567.966 23.1689 567.837 23.3799C567.714 23.5908 567.652 23.8135 567.652 24.0479C567.652 24.2236 567.682 24.3818 567.74 24.5225C567.805 24.6572 567.916 24.7832 568.074 24.9004C568.232 25.0117 568.455 25.1172 568.742 25.2168C569.029 25.3164 569.396 25.416 569.841 25.5156C570.62 25.6914 571.262 25.9023 571.766 26.1484C572.27 26.3945 572.645 26.6963 572.891 27.0537C573.137 27.4111 573.26 27.8447 573.26 28.3545C573.26 28.7705 573.172 29.1514 572.996 29.4971C572.826 29.8428 572.577 30.1416 572.249 30.3936C571.927 30.6396 571.54 30.833 571.089 30.9736C570.644 31.1084 570.143 31.1758 569.586 31.1758C568.748 31.1758 568.039 31.0264 567.459 30.7275C566.879 30.4287 566.439 30.042 566.141 29.5674C565.842 29.0928 565.692 28.5918 565.692 28.0645H567.327C567.351 28.5098 567.479 28.8643 567.714 29.1279C567.948 29.3857 568.235 29.5703 568.575 29.6816C568.915 29.7871 569.252 29.8398 569.586 29.8398C570.031 29.8398 570.403 29.7812 570.702 29.6641C571.007 29.5469 571.238 29.3857 571.396 29.1807C571.555 28.9756 571.634 28.7412 571.634 28.4775ZM579.377 21.4902V22.7383H574.235V21.4902H579.377ZM575.976 19.1787H577.602V28.6445C577.602 28.9668 577.651 29.21 577.751 29.374C577.851 29.5381 577.979 29.6465 578.138 29.6992C578.296 29.752 578.466 29.7783 578.647 29.7783C578.782 29.7783 578.923 29.7666 579.069 29.7432C579.222 29.7139 579.336 29.6904 579.412 29.6729L579.421 31C579.292 31.041 579.122 31.0791 578.911 31.1143C578.706 31.1553 578.457 31.1758 578.164 31.1758C577.766 31.1758 577.399 31.0967 577.065 30.9385C576.731 30.7803 576.465 30.5166 576.266 30.1475C576.072 29.7725 575.976 29.2686 575.976 28.6357V19.1787ZM586.892 29.374V24.4785C586.892 24.1035 586.815 23.7783 586.663 23.5029C586.517 23.2217 586.294 23.0049 585.995 22.8525C585.696 22.7002 585.327 22.624 584.888 22.624C584.478 22.624 584.117 22.6943 583.807 22.835C583.502 22.9756 583.262 23.1602 583.086 23.3887C582.916 23.6172 582.831 23.8633 582.831 24.127H581.205C581.205 23.7871 581.293 23.4502 581.469 23.1162C581.645 22.7822 581.896 22.4805 582.225 22.2109C582.559 21.9355 582.957 21.7188 583.42 21.5605C583.889 21.3965 584.41 21.3145 584.984 21.3145C585.676 21.3145 586.285 21.4316 586.812 21.666C587.346 21.9004 587.762 22.2549 588.061 22.7295C588.365 23.1982 588.518 23.7871 588.518 24.4961V28.9258C588.518 29.2422 588.544 29.5791 588.597 29.9365C588.655 30.2939 588.74 30.6016 588.852 30.8594V31H587.155C587.073 30.8125 587.009 30.5635 586.962 30.2529C586.915 29.9365 586.892 29.6436 586.892 29.374ZM587.173 25.2344L587.19 26.377H585.547C585.084 26.377 584.671 26.415 584.308 26.4912C583.944 26.5615 583.64 26.6699 583.394 26.8164C583.147 26.9629 582.96 27.1475 582.831 27.3701C582.702 27.5869 582.638 27.8418 582.638 28.1348C582.638 28.4336 582.705 28.7061 582.84 28.9521C582.975 29.1982 583.177 29.3945 583.446 29.541C583.722 29.6816 584.059 29.752 584.457 29.752C584.955 29.752 585.395 29.6465 585.775 29.4355C586.156 29.2246 586.458 28.9668 586.681 28.6621C586.909 28.3574 587.032 28.0615 587.05 27.7744L587.744 28.5566C587.703 28.8027 587.592 29.0752 587.41 29.374C587.229 29.6729 586.985 29.96 586.681 30.2354C586.382 30.5049 586.024 30.7305 585.608 30.9121C585.198 31.0879 584.735 31.1758 584.22 31.1758C583.575 31.1758 583.01 31.0498 582.523 30.7979C582.043 30.5459 581.668 30.209 581.398 29.7871C581.135 29.3594 581.003 28.8818 581.003 28.3545C581.003 27.8447 581.103 27.3965 581.302 27.0098C581.501 26.6172 581.788 26.292 582.163 26.0342C582.538 25.7705 582.989 25.5713 583.517 25.4365C584.044 25.3018 584.633 25.2344 585.283 25.2344H587.173ZM592.71 17.5V31H591.075V17.5H592.71ZM598.52 21.4902L594.371 25.9287L592.051 28.3369L591.919 26.6055L593.58 24.6191L596.533 21.4902H598.52ZM597.034 31L593.642 26.4648L594.485 25.0146L598.95 31H597.034ZM603.969 31.1758C603.307 31.1758 602.706 31.0645 602.167 30.8418C601.634 30.6133 601.174 30.2939 600.787 29.8838C600.406 29.4736 600.113 28.9873 599.908 28.4248C599.703 27.8623 599.601 27.2471 599.601 26.5791V26.21C599.601 25.4365 599.715 24.748 599.943 24.1445C600.172 23.5352 600.482 23.0195 600.875 22.5977C601.268 22.1758 601.713 21.8564 602.211 21.6396C602.709 21.4229 603.225 21.3145 603.758 21.3145C604.438 21.3145 605.023 21.4316 605.516 21.666C606.014 21.9004 606.421 22.2285 606.737 22.6504C607.054 23.0664 607.288 23.5586 607.44 24.127C607.593 24.6895 607.669 25.3047 607.669 25.9727V26.7021H600.567V25.375H606.043V25.252C606.02 24.8301 605.932 24.4199 605.779 24.0215C605.633 23.623 605.398 23.2949 605.076 23.0371C604.754 22.7793 604.314 22.6504 603.758 22.6504C603.389 22.6504 603.049 22.7295 602.738 22.8877C602.428 23.04 602.161 23.2686 601.938 23.5732C601.716 23.8779 601.543 24.25 601.42 24.6895C601.297 25.1289 601.235 25.6357 601.235 26.21V26.5791C601.235 27.0303 601.297 27.4551 601.42 27.8535C601.549 28.2461 601.733 28.5918 601.974 28.8906C602.22 29.1895 602.516 29.4238 602.861 29.5938C603.213 29.7637 603.611 29.8486 604.057 29.8486C604.631 29.8486 605.117 29.7314 605.516 29.4971C605.914 29.2627 606.263 28.9492 606.562 28.5566L607.546 29.3389C607.341 29.6494 607.08 29.9453 606.764 30.2266C606.447 30.5078 606.058 30.7363 605.595 30.9121C605.138 31.0879 604.596 31.1758 603.969 31.1758ZM615.562 29.1543V17.5H617.196V31H615.702L615.562 29.1543ZM609.163 26.3506V26.166C609.163 25.4395 609.251 24.7803 609.427 24.1885C609.608 23.5908 609.863 23.0781 610.191 22.6504C610.525 22.2227 610.921 21.8945 611.378 21.666C611.841 21.4316 612.356 21.3145 612.925 21.3145C613.522 21.3145 614.044 21.4199 614.489 21.6309C614.94 21.8359 615.321 22.1377 615.632 22.5361C615.948 22.9287 616.197 23.4033 616.379 23.96C616.561 24.5166 616.687 25.1465 616.757 25.8496V26.6582C616.692 27.3555 616.566 27.9824 616.379 28.5391C616.197 29.0957 615.948 29.5703 615.632 29.9629C615.321 30.3555 614.94 30.6572 614.489 30.8682C614.038 31.0732 613.511 31.1758 612.907 31.1758C612.351 31.1758 611.841 31.0557 611.378 30.8154C610.921 30.5752 610.525 30.2383 610.191 29.8047C609.863 29.3711 609.608 28.8613 609.427 28.2754C609.251 27.6836 609.163 27.042 609.163 26.3506ZM610.798 26.166V26.3506C610.798 26.8252 610.845 27.2705 610.938 27.6865C611.038 28.1025 611.19 28.4688 611.396 28.7852C611.601 29.1016 611.861 29.3506 612.178 29.5322C612.494 29.708 612.872 29.7959 613.312 29.7959C613.851 29.7959 614.293 29.6816 614.639 29.4531C614.99 29.2246 615.271 28.9229 615.482 28.5479C615.693 28.1729 615.857 27.7656 615.975 27.3262V25.208C615.904 24.8857 615.802 24.5752 615.667 24.2764C615.538 23.9717 615.368 23.7021 615.157 23.4678C614.952 23.2275 614.697 23.0371 614.393 22.8965C614.094 22.7559 613.739 22.6855 613.329 22.6855C612.884 22.6855 612.5 22.7793 612.178 22.9668C611.861 23.1484 611.601 23.4004 611.396 23.7227C611.19 24.0391 611.038 24.4082 610.938 24.8301C610.845 25.2461 610.798 25.6914 610.798 26.166Z" fill="white"/>
<path d="M497.12 137.909L495.819 137.575L496.461 131.203H503.026V132.706H497.841L497.454 136.187C497.688 136.052 497.984 135.926 498.342 135.809C498.705 135.691 499.121 135.633 499.59 135.633C500.182 135.633 500.712 135.735 501.181 135.94C501.649 136.14 502.048 136.427 502.376 136.802C502.71 137.177 502.965 137.628 503.141 138.155C503.316 138.683 503.404 139.271 503.404 139.922C503.404 140.537 503.319 141.103 503.149 141.618C502.985 142.134 502.736 142.585 502.402 142.972C502.068 143.353 501.646 143.648 501.137 143.859C500.633 144.07 500.038 144.176 499.353 144.176C498.837 144.176 498.348 144.105 497.885 143.965C497.428 143.818 497.018 143.599 496.654 143.306C496.297 143.007 496.004 142.638 495.775 142.198C495.553 141.753 495.412 141.231 495.354 140.634H496.9C496.971 141.114 497.111 141.519 497.322 141.847C497.533 142.175 497.809 142.424 498.148 142.594C498.494 142.758 498.896 142.84 499.353 142.84C499.739 142.84 500.082 142.772 500.381 142.638C500.68 142.503 500.932 142.31 501.137 142.058C501.342 141.806 501.497 141.501 501.603 141.144C501.714 140.786 501.77 140.385 501.77 139.939C501.77 139.535 501.714 139.16 501.603 138.814C501.491 138.469 501.324 138.167 501.102 137.909C500.885 137.651 500.618 137.452 500.302 137.312C499.985 137.165 499.622 137.092 499.212 137.092C498.667 137.092 498.254 137.165 497.973 137.312C497.697 137.458 497.413 137.657 497.12 137.909ZM513.538 144H510.866L510.884 142.62H513.538C514.452 142.62 515.214 142.43 515.823 142.049C516.433 141.662 516.89 141.123 517.194 140.432C517.505 139.734 517.66 138.92 517.66 137.988V137.206C517.66 136.474 517.572 135.823 517.396 135.255C517.221 134.681 516.963 134.197 516.623 133.805C516.283 133.406 515.867 133.104 515.375 132.899C514.889 132.694 514.329 132.592 513.696 132.592H510.813V131.203H513.696C514.534 131.203 515.299 131.344 515.99 131.625C516.682 131.9 517.276 132.302 517.774 132.829C518.278 133.351 518.665 133.983 518.935 134.728C519.204 135.466 519.339 136.298 519.339 137.224V137.988C519.339 138.914 519.204 139.749 518.935 140.493C518.665 141.231 518.275 141.861 517.766 142.383C517.262 142.904 516.652 143.306 515.938 143.587C515.229 143.862 514.429 144 513.538 144ZM511.771 131.203V144H510.075V131.203H511.771ZM529.613 139.931H531.301C531.213 140.739 530.981 141.463 530.606 142.102C530.231 142.74 529.701 143.247 529.016 143.622C528.33 143.991 527.475 144.176 526.449 144.176C525.699 144.176 525.017 144.035 524.401 143.754C523.792 143.473 523.268 143.074 522.828 142.559C522.389 142.037 522.049 141.413 521.809 140.687C521.574 139.954 521.457 139.14 521.457 138.243V136.969C521.457 136.072 521.574 135.261 521.809 134.534C522.049 133.802 522.392 133.175 522.837 132.653C523.288 132.132 523.83 131.73 524.463 131.449C525.096 131.168 525.808 131.027 526.599 131.027C527.565 131.027 528.383 131.209 529.051 131.572C529.719 131.936 530.237 132.439 530.606 133.084C530.981 133.723 531.213 134.464 531.301 135.308H529.613C529.531 134.71 529.379 134.197 529.156 133.77C528.934 133.336 528.617 133.002 528.207 132.768C527.797 132.533 527.261 132.416 526.599 132.416C526.03 132.416 525.529 132.524 525.096 132.741C524.668 132.958 524.308 133.266 524.015 133.664C523.728 134.062 523.511 134.54 523.364 135.097C523.218 135.653 523.145 136.271 523.145 136.951V138.243C523.145 138.87 523.209 139.459 523.338 140.01C523.473 140.561 523.675 141.044 523.944 141.46C524.214 141.876 524.557 142.204 524.973 142.444C525.389 142.679 525.881 142.796 526.449 142.796C527.17 142.796 527.744 142.682 528.172 142.453C528.6 142.225 528.922 141.896 529.139 141.469C529.361 141.041 529.52 140.528 529.613 139.931ZM539.598 134.49V144H537.963V134.49H539.598ZM537.84 131.968C537.84 131.704 537.919 131.481 538.077 131.3C538.241 131.118 538.481 131.027 538.798 131.027C539.108 131.027 539.346 131.118 539.51 131.3C539.68 131.481 539.765 131.704 539.765 131.968C539.765 132.22 539.68 132.437 539.51 132.618C539.346 132.794 539.108 132.882 538.798 132.882C538.481 132.882 538.241 132.794 538.077 132.618C537.919 132.437 537.84 132.22 537.84 131.968ZM547.745 141.478C547.745 141.243 547.692 141.026 547.587 140.827C547.487 140.622 547.279 140.438 546.963 140.273C546.652 140.104 546.184 139.957 545.557 139.834C545.029 139.723 544.552 139.591 544.124 139.438C543.702 139.286 543.342 139.102 543.043 138.885C542.75 138.668 542.524 138.413 542.366 138.12C542.208 137.827 542.129 137.484 542.129 137.092C542.129 136.717 542.211 136.362 542.375 136.028C542.545 135.694 542.782 135.398 543.087 135.141C543.397 134.883 543.77 134.681 544.203 134.534C544.637 134.388 545.12 134.314 545.653 134.314C546.415 134.314 547.065 134.449 547.604 134.719C548.144 134.988 548.557 135.349 548.844 135.8C549.131 136.245 549.274 136.74 549.274 137.285H547.648C547.648 137.021 547.569 136.767 547.411 136.521C547.259 136.269 547.033 136.061 546.734 135.896C546.441 135.732 546.081 135.65 545.653 135.65C545.202 135.65 544.836 135.721 544.555 135.861C544.279 135.996 544.077 136.169 543.948 136.38C543.825 136.591 543.764 136.813 543.764 137.048C543.764 137.224 543.793 137.382 543.852 137.522C543.916 137.657 544.027 137.783 544.186 137.9C544.344 138.012 544.566 138.117 544.854 138.217C545.141 138.316 545.507 138.416 545.952 138.516C546.731 138.691 547.373 138.902 547.877 139.148C548.381 139.395 548.756 139.696 549.002 140.054C549.248 140.411 549.371 140.845 549.371 141.354C549.371 141.771 549.283 142.151 549.107 142.497C548.938 142.843 548.688 143.142 548.36 143.394C548.038 143.64 547.651 143.833 547.2 143.974C546.755 144.108 546.254 144.176 545.697 144.176C544.859 144.176 544.15 144.026 543.57 143.728C542.99 143.429 542.551 143.042 542.252 142.567C541.953 142.093 541.804 141.592 541.804 141.064H543.438C543.462 141.51 543.591 141.864 543.825 142.128C544.06 142.386 544.347 142.57 544.687 142.682C545.026 142.787 545.363 142.84 545.697 142.84C546.143 142.84 546.515 142.781 546.813 142.664C547.118 142.547 547.35 142.386 547.508 142.181C547.666 141.976 547.745 141.741 547.745 141.478ZM561.966 142.154V130.5H563.601V144H562.106L561.966 142.154ZM555.567 139.351V139.166C555.567 138.439 555.655 137.78 555.831 137.188C556.013 136.591 556.268 136.078 556.596 135.65C556.93 135.223 557.325 134.895 557.782 134.666C558.245 134.432 558.761 134.314 559.329 134.314C559.927 134.314 560.448 134.42 560.894 134.631C561.345 134.836 561.726 135.138 562.036 135.536C562.353 135.929 562.602 136.403 562.783 136.96C562.965 137.517 563.091 138.146 563.161 138.85V139.658C563.097 140.355 562.971 140.982 562.783 141.539C562.602 142.096 562.353 142.57 562.036 142.963C561.726 143.355 561.345 143.657 560.894 143.868C560.442 144.073 559.915 144.176 559.312 144.176C558.755 144.176 558.245 144.056 557.782 143.815C557.325 143.575 556.93 143.238 556.596 142.805C556.268 142.371 556.013 141.861 555.831 141.275C555.655 140.684 555.567 140.042 555.567 139.351ZM557.202 139.166V139.351C557.202 139.825 557.249 140.271 557.343 140.687C557.442 141.103 557.595 141.469 557.8 141.785C558.005 142.102 558.266 142.351 558.582 142.532C558.898 142.708 559.276 142.796 559.716 142.796C560.255 142.796 560.697 142.682 561.043 142.453C561.395 142.225 561.676 141.923 561.887 141.548C562.098 141.173 562.262 140.766 562.379 140.326V138.208C562.309 137.886 562.206 137.575 562.071 137.276C561.942 136.972 561.772 136.702 561.562 136.468C561.356 136.228 561.102 136.037 560.797 135.896C560.498 135.756 560.144 135.686 559.733 135.686C559.288 135.686 558.904 135.779 558.582 135.967C558.266 136.148 558.005 136.4 557.8 136.723C557.595 137.039 557.442 137.408 557.343 137.83C557.249 138.246 557.202 138.691 557.202 139.166ZM567.898 134.49V144H566.264V134.49H567.898ZM566.141 131.968C566.141 131.704 566.22 131.481 566.378 131.3C566.542 131.118 566.782 131.027 567.099 131.027C567.409 131.027 567.646 131.118 567.811 131.3C567.98 131.481 568.065 131.704 568.065 131.968C568.065 132.22 567.98 132.437 567.811 132.618C567.646 132.794 567.409 132.882 567.099 132.882C566.782 132.882 566.542 132.794 566.378 132.618C566.22 132.437 566.141 132.22 566.141 131.968ZM576.046 141.478C576.046 141.243 575.993 141.026 575.888 140.827C575.788 140.622 575.58 140.438 575.264 140.273C574.953 140.104 574.484 139.957 573.857 139.834C573.33 139.723 572.853 139.591 572.425 139.438C572.003 139.286 571.643 139.102 571.344 138.885C571.051 138.668 570.825 138.413 570.667 138.12C570.509 137.827 570.43 137.484 570.43 137.092C570.43 136.717 570.512 136.362 570.676 136.028C570.846 135.694 571.083 135.398 571.388 135.141C571.698 134.883 572.07 134.681 572.504 134.534C572.938 134.388 573.421 134.314 573.954 134.314C574.716 134.314 575.366 134.449 575.905 134.719C576.444 134.988 576.857 135.349 577.145 135.8C577.432 136.245 577.575 136.74 577.575 137.285H575.949C575.949 137.021 575.87 136.767 575.712 136.521C575.56 136.269 575.334 136.061 575.035 135.896C574.742 135.732 574.382 135.65 573.954 135.65C573.503 135.65 573.137 135.721 572.855 135.861C572.58 135.996 572.378 136.169 572.249 136.38C572.126 136.591 572.064 136.813 572.064 137.048C572.064 137.224 572.094 137.382 572.152 137.522C572.217 137.657 572.328 137.783 572.486 137.9C572.645 138.012 572.867 138.117 573.154 138.217C573.441 138.316 573.808 138.416 574.253 138.516C575.032 138.691 575.674 138.902 576.178 139.148C576.682 139.395 577.057 139.696 577.303 140.054C577.549 140.411 577.672 140.845 577.672 141.354C577.672 141.771 577.584 142.151 577.408 142.497C577.238 142.843 576.989 143.142 576.661 143.394C576.339 143.64 575.952 143.833 575.501 143.974C575.056 144.108 574.555 144.176 573.998 144.176C573.16 144.176 572.451 144.026 571.871 143.728C571.291 143.429 570.852 143.042 570.553 142.567C570.254 142.093 570.104 141.592 570.104 141.064H571.739C571.763 141.51 571.892 141.864 572.126 142.128C572.36 142.386 572.647 142.57 572.987 142.682C573.327 142.787 573.664 142.84 573.998 142.84C574.443 142.84 574.815 142.781 575.114 142.664C575.419 142.547 575.65 142.386 575.809 142.181C575.967 141.976 576.046 141.741 576.046 141.478ZM583.789 134.49V135.738H578.647V134.49H583.789ZM580.388 132.179H582.014V141.645C582.014 141.967 582.063 142.21 582.163 142.374C582.263 142.538 582.392 142.646 582.55 142.699C582.708 142.752 582.878 142.778 583.06 142.778C583.194 142.778 583.335 142.767 583.481 142.743C583.634 142.714 583.748 142.69 583.824 142.673L583.833 144C583.704 144.041 583.534 144.079 583.323 144.114C583.118 144.155 582.869 144.176 582.576 144.176C582.178 144.176 581.812 144.097 581.478 143.938C581.144 143.78 580.877 143.517 580.678 143.147C580.484 142.772 580.388 142.269 580.388 141.636V132.179ZM587.322 135.984V144H585.696V134.49H587.278L587.322 135.984ZM590.293 134.438L590.284 135.949C590.149 135.92 590.021 135.902 589.897 135.896C589.78 135.885 589.646 135.879 589.493 135.879C589.118 135.879 588.787 135.938 588.5 136.055C588.213 136.172 587.97 136.336 587.771 136.547C587.571 136.758 587.413 137.01 587.296 137.303C587.185 137.59 587.111 137.906 587.076 138.252L586.619 138.516C586.619 137.941 586.675 137.402 586.786 136.898C586.903 136.395 587.082 135.949 587.322 135.562C587.562 135.17 587.867 134.865 588.236 134.648C588.611 134.426 589.057 134.314 589.572 134.314C589.689 134.314 589.824 134.329 589.977 134.358C590.129 134.382 590.234 134.408 590.293 134.438ZM593.562 134.49V144H591.928V134.49H593.562ZM591.805 131.968C591.805 131.704 591.884 131.481 592.042 131.3C592.206 131.118 592.446 131.027 592.763 131.027C593.073 131.027 593.311 131.118 593.475 131.3C593.645 131.481 593.729 131.704 593.729 131.968C593.729 132.22 593.645 132.437 593.475 132.618C593.311 132.794 593.073 132.882 592.763 132.882C592.446 132.882 592.206 132.794 592.042 132.618C591.884 132.437 591.805 132.22 591.805 131.968ZM596.164 130.5H597.799V142.154L597.658 144H596.164V130.5ZM604.224 139.166V139.351C604.224 140.042 604.142 140.684 603.978 141.275C603.813 141.861 603.573 142.371 603.257 142.805C602.94 143.238 602.554 143.575 602.097 143.815C601.64 144.056 601.115 144.176 600.523 144.176C599.92 144.176 599.39 144.073 598.933 143.868C598.481 143.657 598.101 143.355 597.79 142.963C597.479 142.57 597.23 142.096 597.043 141.539C596.861 140.982 596.735 140.355 596.665 139.658V138.85C596.735 138.146 596.861 137.517 597.043 136.96C597.23 136.403 597.479 135.929 597.79 135.536C598.101 135.138 598.481 134.836 598.933 134.631C599.384 134.42 599.908 134.314 600.506 134.314C601.104 134.314 601.634 134.432 602.097 134.666C602.56 134.895 602.946 135.223 603.257 135.65C603.573 136.078 603.813 136.591 603.978 137.188C604.142 137.78 604.224 138.439 604.224 139.166ZM602.589 139.351V139.166C602.589 138.691 602.545 138.246 602.457 137.83C602.369 137.408 602.229 137.039 602.035 136.723C601.842 136.4 601.587 136.148 601.271 135.967C600.954 135.779 600.564 135.686 600.102 135.686C599.691 135.686 599.334 135.756 599.029 135.896C598.73 136.037 598.476 136.228 598.265 136.468C598.054 136.702 597.881 136.972 597.746 137.276C597.617 137.575 597.521 137.886 597.456 138.208V140.326C597.55 140.736 597.702 141.132 597.913 141.513C598.13 141.888 598.417 142.195 598.774 142.436C599.138 142.676 599.586 142.796 600.119 142.796C600.559 142.796 600.934 142.708 601.244 142.532C601.561 142.351 601.815 142.102 602.009 141.785C602.208 141.469 602.354 141.103 602.448 140.687C602.542 140.271 602.589 139.825 602.589 139.351ZM612.099 141.803V134.49H613.733V144H612.178L612.099 141.803ZM612.406 139.799L613.083 139.781C613.083 140.414 613.016 141 612.881 141.539C612.752 142.072 612.541 142.535 612.248 142.928C611.955 143.32 611.571 143.628 611.097 143.851C610.622 144.067 610.045 144.176 609.365 144.176C608.902 144.176 608.478 144.108 608.091 143.974C607.71 143.839 607.382 143.631 607.106 143.35C606.831 143.068 606.617 142.702 606.465 142.251C606.318 141.8 606.245 141.258 606.245 140.625V134.49H607.871V140.643C607.871 141.07 607.918 141.425 608.012 141.706C608.111 141.981 608.243 142.201 608.407 142.365C608.577 142.523 608.765 142.635 608.97 142.699C609.181 142.764 609.397 142.796 609.62 142.796C610.312 142.796 610.859 142.664 611.264 142.4C611.668 142.131 611.958 141.771 612.134 141.319C612.315 140.862 612.406 140.355 612.406 139.799ZM620.193 134.49V135.738H615.052V134.49H620.193ZM616.792 132.179H618.418V141.645C618.418 141.967 618.468 142.21 618.567 142.374C618.667 142.538 618.796 142.646 618.954 142.699C619.112 142.752 619.282 142.778 619.464 142.778C619.599 142.778 619.739 142.767 619.886 142.743C620.038 142.714 620.152 142.69 620.229 142.673L620.237 144C620.108 144.041 619.938 144.079 619.728 144.114C619.522 144.155 619.273 144.176 618.98 144.176C618.582 144.176 618.216 144.097 617.882 143.938C617.548 143.78 617.281 143.517 617.082 143.147C616.889 142.772 616.792 142.269 616.792 141.636V132.179ZM626.047 144.176C625.385 144.176 624.784 144.064 624.245 143.842C623.712 143.613 623.252 143.294 622.865 142.884C622.484 142.474 622.191 141.987 621.986 141.425C621.781 140.862 621.679 140.247 621.679 139.579V139.21C621.679 138.437 621.793 137.748 622.021 137.145C622.25 136.535 622.561 136.02 622.953 135.598C623.346 135.176 623.791 134.856 624.289 134.64C624.787 134.423 625.303 134.314 625.836 134.314C626.516 134.314 627.102 134.432 627.594 134.666C628.092 134.9 628.499 135.229 628.815 135.65C629.132 136.066 629.366 136.559 629.519 137.127C629.671 137.689 629.747 138.305 629.747 138.973V139.702H622.646V138.375H628.121V138.252C628.098 137.83 628.01 137.42 627.857 137.021C627.711 136.623 627.477 136.295 627.154 136.037C626.832 135.779 626.393 135.65 625.836 135.65C625.467 135.65 625.127 135.729 624.816 135.888C624.506 136.04 624.239 136.269 624.017 136.573C623.794 136.878 623.621 137.25 623.498 137.689C623.375 138.129 623.313 138.636 623.313 139.21V139.579C623.313 140.03 623.375 140.455 623.498 140.854C623.627 141.246 623.812 141.592 624.052 141.891C624.298 142.189 624.594 142.424 624.939 142.594C625.291 142.764 625.689 142.849 626.135 142.849C626.709 142.849 627.195 142.731 627.594 142.497C627.992 142.263 628.341 141.949 628.64 141.557L629.624 142.339C629.419 142.649 629.158 142.945 628.842 143.227C628.525 143.508 628.136 143.736 627.673 143.912C627.216 144.088 626.674 144.176 626.047 144.176ZM637.64 142.154V130.5H639.274V144H637.78L637.64 142.154ZM631.241 139.351V139.166C631.241 138.439 631.329 137.78 631.505 137.188C631.687 136.591 631.941 136.078 632.27 135.65C632.604 135.223 632.999 134.895 633.456 134.666C633.919 134.432 634.435 134.314 635.003 134.314C635.601 134.314 636.122 134.42 636.567 134.631C637.019 134.836 637.399 135.138 637.71 135.536C638.026 135.929 638.275 136.403 638.457 136.96C638.639 137.517 638.765 138.146 638.835 138.85V139.658C638.771 140.355 638.645 140.982 638.457 141.539C638.275 142.096 638.026 142.57 637.71 142.963C637.399 143.355 637.019 143.657 636.567 143.868C636.116 144.073 635.589 144.176 634.985 144.176C634.429 144.176 633.919 144.056 633.456 143.815C632.999 143.575 632.604 143.238 632.27 142.805C631.941 142.371 631.687 141.861 631.505 141.275C631.329 140.684 631.241 140.042 631.241 139.351ZM632.876 139.166V139.351C632.876 139.825 632.923 140.271 633.017 140.687C633.116 141.103 633.269 141.469 633.474 141.785C633.679 142.102 633.939 142.351 634.256 142.532C634.572 142.708 634.95 142.796 635.39 142.796C635.929 142.796 636.371 142.682 636.717 142.453C637.068 142.225 637.35 141.923 637.561 141.548C637.771 141.173 637.936 140.766 638.053 140.326V138.208C637.982 137.886 637.88 137.575 637.745 137.276C637.616 136.972 637.446 136.702 637.235 136.468C637.03 136.228 636.775 136.037 636.471 135.896C636.172 135.756 635.817 135.686 635.407 135.686C634.962 135.686 634.578 135.779 634.256 135.967C633.939 136.148 633.679 136.4 633.474 136.723C633.269 137.039 633.116 137.408 633.017 137.83C632.923 138.246 632.876 138.691 632.876 139.166ZM648.037 134.49V144H646.402V134.49H648.037ZM646.279 131.968C646.279 131.704 646.358 131.481 646.517 131.3C646.681 131.118 646.921 131.027 647.237 131.027C647.548 131.027 647.785 131.118 647.949 131.3C648.119 131.481 648.204 131.704 648.204 131.968C648.204 132.22 648.119 132.437 647.949 132.618C647.785 132.794 647.548 132.882 647.237 132.882C646.921 132.882 646.681 132.794 646.517 132.618C646.358 132.437 646.279 132.22 646.279 131.968ZM652.273 136.521V144H650.647V134.49H652.186L652.273 136.521ZM651.887 138.885L651.21 138.858C651.216 138.208 651.312 137.607 651.5 137.057C651.688 136.5 651.951 136.017 652.291 135.606C652.631 135.196 653.035 134.88 653.504 134.657C653.979 134.429 654.503 134.314 655.077 134.314C655.546 134.314 655.968 134.379 656.343 134.508C656.718 134.631 657.037 134.83 657.301 135.105C657.57 135.381 657.775 135.738 657.916 136.178C658.057 136.611 658.127 137.142 658.127 137.769V144H656.492V137.751C656.492 137.253 656.419 136.854 656.272 136.556C656.126 136.251 655.912 136.031 655.631 135.896C655.35 135.756 655.004 135.686 654.594 135.686C654.189 135.686 653.82 135.771 653.486 135.94C653.158 136.11 652.874 136.345 652.634 136.644C652.399 136.942 652.215 137.285 652.08 137.672C651.951 138.053 651.887 138.457 651.887 138.885ZM666.134 141.478C666.134 141.243 666.081 141.026 665.976 140.827C665.876 140.622 665.668 140.438 665.352 140.273C665.041 140.104 664.572 139.957 663.945 139.834C663.418 139.723 662.94 139.591 662.513 139.438C662.091 139.286 661.73 139.102 661.432 138.885C661.139 138.668 660.913 138.413 660.755 138.12C660.597 137.827 660.518 137.484 660.518 137.092C660.518 136.717 660.6 136.362 660.764 136.028C660.934 135.694 661.171 135.398 661.476 135.141C661.786 134.883 662.158 134.681 662.592 134.534C663.025 134.388 663.509 134.314 664.042 134.314C664.804 134.314 665.454 134.449 665.993 134.719C666.532 134.988 666.945 135.349 667.232 135.8C667.52 136.245 667.663 136.74 667.663 137.285H666.037C666.037 137.021 665.958 136.767 665.8 136.521C665.647 136.269 665.422 136.061 665.123 135.896C664.83 135.732 664.47 135.65 664.042 135.65C663.591 135.65 663.225 135.721 662.943 135.861C662.668 135.996 662.466 136.169 662.337 136.38C662.214 136.591 662.152 136.813 662.152 137.048C662.152 137.224 662.182 137.382 662.24 137.522C662.305 137.657 662.416 137.783 662.574 137.9C662.732 138.012 662.955 138.117 663.242 138.217C663.529 138.316 663.896 138.416 664.341 138.516C665.12 138.691 665.762 138.902 666.266 139.148C666.77 139.395 667.145 139.696 667.391 140.054C667.637 140.411 667.76 140.845 667.76 141.354C667.76 141.771 667.672 142.151 667.496 142.497C667.326 142.843 667.077 143.142 666.749 143.394C666.427 143.64 666.04 143.833 665.589 143.974C665.144 144.108 664.643 144.176 664.086 144.176C663.248 144.176 662.539 144.026 661.959 143.728C661.379 143.429 660.939 143.042 660.641 142.567C660.342 142.093 660.192 141.592 660.192 141.064H661.827C661.851 141.51 661.979 141.864 662.214 142.128C662.448 142.386 662.735 142.57 663.075 142.682C663.415 142.787 663.752 142.84 664.086 142.84C664.531 142.84 664.903 142.781 665.202 142.664C665.507 142.547 665.738 142.386 665.896 142.181C666.055 141.976 666.134 141.741 666.134 141.478ZM673.877 134.49V135.738H668.735V134.49H673.877ZM670.476 132.179H672.102V141.645C672.102 141.967 672.151 142.21 672.251 142.374C672.351 142.538 672.479 142.646 672.638 142.699C672.796 142.752 672.966 142.778 673.147 142.778C673.282 142.778 673.423 142.767 673.569 142.743C673.722 142.714 673.836 142.69 673.912 142.673L673.921 144C673.792 144.041 673.622 144.079 673.411 144.114C673.206 144.155 672.957 144.176 672.664 144.176C672.266 144.176 671.899 144.097 671.565 143.938C671.231 143.78 670.965 143.517 670.766 143.147C670.572 142.772 670.476 142.269 670.476 141.636V132.179ZM681.392 142.374V137.479C681.392 137.104 681.315 136.778 681.163 136.503C681.017 136.222 680.794 136.005 680.495 135.853C680.196 135.7 679.827 135.624 679.388 135.624C678.978 135.624 678.617 135.694 678.307 135.835C678.002 135.976 677.762 136.16 677.586 136.389C677.416 136.617 677.331 136.863 677.331 137.127H675.705C675.705 136.787 675.793 136.45 675.969 136.116C676.145 135.782 676.396 135.48 676.725 135.211C677.059 134.936 677.457 134.719 677.92 134.561C678.389 134.396 678.91 134.314 679.484 134.314C680.176 134.314 680.785 134.432 681.312 134.666C681.846 134.9 682.262 135.255 682.561 135.729C682.865 136.198 683.018 136.787 683.018 137.496V141.926C683.018 142.242 683.044 142.579 683.097 142.937C683.155 143.294 683.24 143.602 683.352 143.859V144H681.655C681.573 143.812 681.509 143.563 681.462 143.253C681.415 142.937 681.392 142.644 681.392 142.374ZM681.673 138.234L681.69 139.377H680.047C679.584 139.377 679.171 139.415 678.808 139.491C678.444 139.562 678.14 139.67 677.894 139.816C677.647 139.963 677.46 140.147 677.331 140.37C677.202 140.587 677.138 140.842 677.138 141.135C677.138 141.434 677.205 141.706 677.34 141.952C677.475 142.198 677.677 142.395 677.946 142.541C678.222 142.682 678.559 142.752 678.957 142.752C679.455 142.752 679.895 142.646 680.275 142.436C680.656 142.225 680.958 141.967 681.181 141.662C681.409 141.357 681.532 141.062 681.55 140.774L682.244 141.557C682.203 141.803 682.092 142.075 681.91 142.374C681.729 142.673 681.485 142.96 681.181 143.235C680.882 143.505 680.524 143.73 680.108 143.912C679.698 144.088 679.235 144.176 678.72 144.176C678.075 144.176 677.51 144.05 677.023 143.798C676.543 143.546 676.168 143.209 675.898 142.787C675.635 142.359 675.503 141.882 675.503 141.354C675.503 140.845 675.603 140.396 675.802 140.01C676.001 139.617 676.288 139.292 676.663 139.034C677.038 138.771 677.489 138.571 678.017 138.437C678.544 138.302 679.133 138.234 679.783 138.234H681.673ZM687.201 136.521V144H685.575V134.49H687.113L687.201 136.521ZM686.814 138.885L686.138 138.858C686.144 138.208 686.24 137.607 686.428 137.057C686.615 136.5 686.879 136.017 687.219 135.606C687.559 135.196 687.963 134.88 688.432 134.657C688.906 134.429 689.431 134.314 690.005 134.314C690.474 134.314 690.896 134.379 691.271 134.508C691.646 134.631 691.965 134.83 692.229 135.105C692.498 135.381 692.703 135.738 692.844 136.178C692.984 136.611 693.055 137.142 693.055 137.769V144H691.42V137.751C691.42 137.253 691.347 136.854 691.2 136.556C691.054 136.251 690.84 136.031 690.559 135.896C690.277 135.756 689.932 135.686 689.521 135.686C689.117 135.686 688.748 135.771 688.414 135.94C688.086 136.11 687.802 136.345 687.562 136.644C687.327 136.942 687.143 137.285 687.008 137.672C686.879 138.053 686.814 138.457 686.814 138.885ZM699.506 134.49V135.738H694.364V134.49H699.506ZM696.104 132.179H697.73V141.645C697.73 141.967 697.78 142.21 697.88 142.374C697.979 142.538 698.108 142.646 698.267 142.699C698.425 142.752 698.595 142.778 698.776 142.778C698.911 142.778 699.052 142.767 699.198 142.743C699.351 142.714 699.465 142.69 699.541 142.673L699.55 144C699.421 144.041 699.251 144.079 699.04 144.114C698.835 144.155 698.586 144.176 698.293 144.176C697.895 144.176 697.528 144.097 697.194 143.938C696.86 143.78 696.594 143.517 696.395 143.147C696.201 142.772 696.104 142.269 696.104 141.636V132.179ZM703.18 130.5V144H701.545V130.5H703.18ZM708.462 143.016L711.107 134.49H712.848L709.033 145.468C708.945 145.702 708.828 145.954 708.682 146.224C708.541 146.499 708.359 146.76 708.137 147.006C707.914 147.252 707.645 147.451 707.328 147.604C707.018 147.762 706.646 147.841 706.212 147.841C706.083 147.841 705.919 147.823 705.72 147.788C705.521 147.753 705.38 147.724 705.298 147.7L705.289 146.382C705.336 146.388 705.409 146.394 705.509 146.399C705.614 146.411 705.688 146.417 705.729 146.417C706.098 146.417 706.411 146.367 706.669 146.268C706.927 146.174 707.144 146.013 707.319 145.784C707.501 145.562 707.656 145.254 707.785 144.861L708.462 143.016ZM706.52 134.49L708.989 141.873L709.411 143.587L708.242 144.185L704.744 134.49H706.52Z" fill="white"/>
<path d="M468.354 25.3536C468.549 25.1583 468.549 24.8417 468.354 24.6464L465.172 21.4645C464.976 21.2692 464.66 21.2692 464.464 21.4645C464.269 21.6597 464.269 21.9763 464.464 22.1716L467.293 25L464.464 27.8284C464.269 28.0237 464.269 28.3403 464.464 28.5355C464.66 28.7308 464.976 28.7308 465.172 28.5355L468.354 25.3536ZM468.354 138.354C468.549 138.158 468.549 137.842 468.354 137.646L465.172 134.464C464.976 134.269 464.66 134.269 464.464 134.464C464.269 134.66 464.269 134.976 464.464 135.172L467.293 138L464.464 140.828C464.269 141.024 464.269 141.34 464.464 141.536C464.66 141.731 464.976 141.731 465.172 141.536L468.354 138.354ZM386 25V25.5H468V25V24.5H386V25ZM468 138V137.5H386V138V138.5H468V138ZM378 130H378.5V33H378H377.5V130H378ZM386 138V137.5C381.858 137.5 378.5 134.142 378.5 130H378H377.5C377.5 134.694 381.306 138.5 386 138.5V138ZM386 25V24.5C381.306 24.5 377.5 28.3056 377.5 33H378H378.5C378.5 28.8579 381.858 25.5 386 25.5V25Z" fill="url(#paint3_linear_116_11)"/>
<path d="M334 82H378" stroke="url(#paint4_linear_116_11)"/>
<defs>
<linearGradient id="paint0_linear_116_11" x1="334" y1="82" x2="148" y2="82" gradientUnits="userSpaceOnUse">
<stop stop-color="#B254FA"/>
<stop offset="1" stop-color="#43A8FE"/>
</linearGradient>
<linearGradient id="paint1_linear_116_11" x1="632" y1="25" x2="478" y2="25" gradientUnits="userSpaceOnUse">
<stop stop-color="#B254FA"/>
<stop offset="1" stop-color="#43A8FE"/>
</linearGradient>
<linearGradient id="paint2_linear_116_11" x1="728" y1="137" x2="478" y2="137" gradientUnits="userSpaceOnUse">
<stop stop-color="#B254FA"/>
<stop offset="1" stop-color="#43A8FE"/>
</linearGradient>
<linearGradient id="paint3_linear_116_11" x1="468" y1="81.5" x2="378" y2="81.5" gradientUnits="userSpaceOnUse">
<stop stop-color="#43A8FE"/>
<stop offset="1" stop-color="#B254FA"/>
</linearGradient>
<linearGradient id="paint4_linear_116_11" x1="356" y1="82" x2="356" y2="83" gradientUnits="userSpaceOnUse">
<stop stop-color="#B254FA"/>
<stop offset="1" stop-color="#43A8FE"/>
</linearGradient>
</defs>
</svg>
