<svg width="374" height="175" viewBox="0 0 374 175" fill="none" xmlns="http://www.w3.org/2000/svg">
<path d="M373.788 161.956C374.136 161.211 373.837 160.259 373.12 159.829L361.449 152.82C360.733 152.39 359.87 152.644 359.523 153.389C359.176 154.133 359.475 155.085 360.191 155.515L370.566 161.746L365.535 172.527C365.188 173.271 365.487 174.223 366.203 174.653C366.919 175.083 367.781 174.829 368.129 174.084L373.788 161.956ZM210.226 53.8483L211.598 53.4828L211.542 53.289L211.443 53.1133L210.226 53.8483ZM5.59573e-05 53.8483L0.932052 55.1054C1.67288 54.4869 2.41202 53.8749 3.14947 53.2692L2.22562 52.0054L1.30176 50.7416C0.558835 51.3517 -0.185736 51.9682 -0.93194 52.5912L5.59573e-05 53.8483ZM6.64674 48.4344L7.55387 49.7117C9.02449 48.5439 10.4882 47.4015 11.945 46.2843L11.0554 44.9934L10.1657 43.7024C8.69701 44.8287 7.22165 45.9801 5.73961 47.1571L6.64674 48.4344ZM15.6218 41.5563L16.4926 42.8615C18.0009 41.7477 19.5016 40.6611 20.9946 39.601L20.1434 38.2816L19.2922 36.9622C17.7859 38.0318 16.2721 39.1279 14.751 40.2512L15.6218 41.5563ZM24.8205 35.0299L25.6505 36.3641C27.2049 35.3065 28.7507 34.2779 30.288 33.2778L29.4803 31.9288L28.6726 30.5799C27.1202 31.5899 25.5595 32.6284 23.9906 33.6958L24.8205 35.0299ZM34.2603 28.8928L35.044 30.2569C36.643 29.266 38.2324 28.3061 39.8122 27.3764L39.0536 25.9971L38.2951 24.6177C36.6981 25.5574 35.0919 26.5275 33.4765 27.5286L34.2603 28.8928ZM43.9546 23.1922L44.686 24.5871C46.327 23.6745 47.9573 22.7948 49.5769 21.9472L48.8742 20.5369L48.1714 19.1265C46.5323 19.9843 44.8829 20.8743 43.2232 21.7973L43.9546 23.1922ZM53.9118 17.9862L54.5836 19.4122C56.2631 18.5904 57.9306 17.8035 59.5862 17.0504L58.9469 15.6091L58.3076 14.1677C56.6299 14.9308 54.9407 15.728 53.2399 16.5602L53.9118 17.9862ZM64.1326 13.3435L64.7365 14.8003C66.4606 14.0781 68.1713 13.393 69.8683 12.7439L69.3015 11.2722L68.7347 9.80053C67.0124 10.4593 65.277 11.1544 63.5286 11.8867L64.1326 13.3435ZM74.6082 9.34293L75.1348 10.8292C76.9141 10.2162 78.6778 9.6431 80.4259 9.10867L79.9419 7.60852L79.458 6.10838C77.6809 6.65166 75.8888 7.23404 74.0816 7.85664L74.6082 9.34293ZM85.3183 6.0716L85.757 7.58469C87.5891 7.09756 89.4033 6.65318 91.1995 6.25011L90.8096 4.72507L90.4198 3.20003C88.5905 3.61051 86.7438 4.06288 84.8797 4.55851L85.3183 6.0716ZM96.311 3.60695L96.6494 5.14244C98.5009 4.80558 100.332 4.51288 102.144 4.26269L101.86 2.71848L101.576 1.17426C99.7278 1.42955 97.8599 1.72808 95.9725 2.07147L96.311 3.60695ZM107.497 2.06795L107.722 3.61887C109.607 3.44456 111.469 3.31653 113.307 3.23281L113.143 1.67768L112.978 0.122544C111.098 0.208141 109.196 0.338992 107.271 0.517033L107.497 2.06795ZM118.799 1.55642L118.9 3.11292C120.802 3.11845 122.678 3.17167 124.528 3.27023L124.495 1.71562L124.461 0.161013C122.566 0.0600633 120.645 0.00559042 118.699 -7.05984e-05L118.799 1.55642ZM130.21 2.1688L130.173 3.71785C132.078 3.91903 133.953 4.1685 135.798 4.46344L135.907 2.92399L136.016 1.38455C134.122 1.0819 132.199 0.826036 130.247 0.619767L130.21 2.1688ZM141.575 3.98859L141.392 5.5141C143.276 5.92145 145.127 6.3764 146.944 6.87564L147.202 5.36869L147.461 3.86175C145.594 3.34873 143.693 2.8814 141.758 2.46308L141.575 3.98859ZM152.774 7.06858L152.439 8.55215C154.285 9.1722 156.093 9.83797 157.862 10.5456L158.275 9.09035L158.687 7.63512C156.867 6.90722 155.007 6.22254 153.11 5.58502L152.774 7.06858ZM163.687 11.4345L163.198 12.8563C164.985 13.6909 166.729 14.5679 168.429 15.4826L168.995 14.0991L169.561 12.7155C167.81 11.7739 166.016 10.8714 164.177 10.0126L163.687 11.4345ZM174.173 17.0759L173.532 18.4162C175.233 19.4589 176.885 20.5385 178.487 21.6498L179.202 20.3576L179.917 19.0654C178.266 17.921 176.565 16.8092 174.814 15.7356L174.173 17.0759ZM184.07 23.9396L183.284 25.1788C184.879 26.4232 186.419 27.6971 187.901 28.994L188.758 27.8129L189.615 26.6317C188.087 25.2951 186.501 23.9824 184.857 22.7004L184.07 23.9396ZM193.244 31.9661L192.318 33.084C193.783 34.519 195.181 35.9727 196.512 37.4371L197.504 36.3883L198.496 35.3395C197.121 33.8279 195.679 32.328 194.169 30.8482L193.244 31.9661ZM201.513 41.0674L200.456 42.0401C201.757 43.6532 202.977 45.2687 204.116 46.8764L205.237 45.9886L206.358 45.1008C205.178 43.4346 203.915 41.7624 202.57 40.0947L201.513 41.0674ZM208.664 51.1849L207.478 51.9748C208.013 52.8509 208.523 53.721 209.008 54.5832L210.226 53.8483L211.443 53.1133C210.938 52.2135 210.407 51.3067 209.849 50.395L208.664 51.1849ZM210.226 53.8483C208.853 54.2138 208.853 54.2139 208.853 54.2139C208.853 54.214 208.853 54.214 208.853 54.2141C208.853 54.2142 208.853 54.2143 208.853 54.2145C208.853 54.2148 208.853 54.2151 208.853 54.2155C208.854 54.2164 208.854 54.2174 208.854 54.2188C208.855 54.2215 208.856 54.2252 208.858 54.2299C208.86 54.2393 208.864 54.2528 208.869 54.2702C208.88 54.3052 208.895 54.3561 208.915 54.4227C208.955 54.5559 209.014 54.7515 209.093 55.0064C209.252 55.5163 209.49 56.2635 209.81 57.2227L211.162 56.7911L212.514 56.3594C212.202 55.4241 211.972 54.6999 211.82 54.212C211.744 53.9681 211.688 53.7832 211.651 53.6606C211.633 53.5993 211.619 53.5536 211.61 53.5238C211.606 53.5089 211.603 53.498 211.601 53.4912C211.6 53.4878 211.599 53.4853 211.599 53.4839C211.599 53.4832 211.598 53.4828 211.598 53.4826C211.598 53.4825 211.598 53.4825 211.598 53.4825C211.598 53.4825 211.598 53.4825 211.598 53.4826C211.598 53.4826 211.598 53.4826 211.598 53.4827C211.598 53.4827 211.598 53.4828 210.226 53.8483ZM213.294 62.7884L211.963 63.281C212.624 65.0409 213.394 67.0178 214.278 69.1759L215.589 68.6346L216.901 68.0933C216.031 65.9692 215.273 64.0249 214.625 62.2957L213.294 62.7884ZM218.077 74.4688L216.785 75.0555C217.606 76.9108 218.496 78.8534 219.456 80.8676L220.728 80.2368L222 79.606C221.054 77.6223 220.178 75.7091 219.369 73.882L218.077 74.4688ZM223.53 85.9137L222.28 86.5881C223.218 88.4234 224.209 90.3013 225.254 92.2116L226.481 91.4935L227.709 90.7755C226.68 88.8953 225.704 87.0466 224.78 85.2393L223.53 85.9137ZM229.587 96.9773L228.384 97.7395C229.434 99.5315 230.53 101.343 231.673 103.165L232.848 102.358L234.023 101.551C232.899 99.7591 231.821 97.978 230.789 96.2151L229.587 96.9773ZM236.272 107.63L235.127 108.483C236.291 110.215 237.498 111.951 238.749 113.683L239.861 112.783L240.973 111.883C239.746 110.182 238.561 108.478 237.417 106.777L236.272 107.63ZM243.619 117.805L242.543 118.753C243.825 120.404 245.148 122.048 246.513 123.677L247.55 122.68L248.587 121.683C247.25 120.087 245.953 118.476 244.696 116.857L243.619 117.805ZM251.654 127.393L250.661 128.44C252.061 129.985 253.501 131.512 254.981 133.016L255.928 131.919L256.874 130.822C255.427 129.352 254.019 127.858 252.648 126.346L251.654 127.393ZM260.365 136.237L259.47 137.384C260.987 138.797 262.543 140.183 264.138 141.538L264.977 140.341L265.816 139.144C264.26 137.823 262.741 136.47 261.26 135.09L260.365 136.237ZM269.76 144.21L268.982 145.456C270.616 146.713 272.288 147.936 273.998 149.119L274.712 147.826L275.425 146.533C273.76 145.381 272.131 144.19 270.539 142.965L269.76 144.21ZM279.797 151.153L279.152 152.491C280.882 153.559 282.649 154.586 284.453 155.568L285.025 154.188L285.598 152.808C283.844 151.853 282.125 150.854 280.442 149.815L279.797 151.153ZM290.393 156.919L289.896 158.337C291.717 159.201 293.574 160.018 295.466 160.785L295.885 159.333L296.304 157.88C294.465 157.134 292.66 156.34 290.89 155.501L290.393 156.919ZM301.434 161.4L301.094 162.882C302.969 163.52 304.877 164.109 306.819 164.646L307.08 163.14L307.341 161.634C305.453 161.111 303.598 160.539 301.775 159.919L301.434 161.4ZM312.82 164.55L312.638 166.076C314.537 166.485 316.467 166.844 318.426 167.151L318.531 165.611L318.636 164.071C316.728 163.772 314.85 163.422 313.001 163.024L312.82 164.55ZM324.299 166.352L324.269 167.901C326.202 168.095 328.161 168.239 330.149 168.33L330.106 166.775L330.063 165.22C328.123 165.131 326.212 164.991 324.329 164.802L324.299 166.352ZM335.829 166.889L335.941 168.446C337.866 168.435 339.816 168.375 341.791 168.265L341.613 166.711L341.435 165.156C339.504 165.264 337.597 165.322 335.717 165.333L335.829 166.889ZM347.292 166.258L347.532 167.808C349.424 167.612 351.34 167.371 353.277 167.082L352.979 165.54L352.682 163.997C350.782 164.281 348.906 164.517 347.053 164.709L347.292 166.258ZM358.599 164.578L358.951 166.111C360.805 165.753 362.679 165.352 364.573 164.908L364.17 163.385L363.768 161.863C361.907 162.3 360.067 162.694 358.247 163.045L358.599 164.578ZM369.689 161.977L370.139 163.487C371.076 163.229 372.017 162.96 372.964 162.681L372.492 161.177L372.019 159.673C371.088 159.948 370.161 160.213 369.24 160.467L369.689 161.977Z" fill="url(#paint0_linear_51_336)"/>
<defs>
<linearGradient id="paint0_linear_51_336" x1="326.235" y1="153.906" x2="6.81258" y2="35.4742" gradientUnits="userSpaceOnUse">
<stop stop-color="#BFF0FF"/>
<stop offset="1" stop-color="#82B4FF"/>
</linearGradient>
</defs>
</svg>
