<svg width="50" height="50" viewBox="0 0 50 50" fill="none" xmlns="http://www.w3.org/2000/svg">
<path d="M29.1667 29.1667C27.5375 29.1667 26.0896 29.7229 25 30.6625C23.9104 29.7229 22.4625 29.1667 20.8333 29.1667C17.3875 29.1667 14.5833 32.1208 14.5833 35.75C14.5833 40.7229 20.7312 46.0292 21.4312 46.6167C22.4646 47.4854 23.7312 47.9187 25 47.9187C26.2687 47.9187 27.5354 47.4854 28.5688 46.6167C29.2687 46.0292 35.4167 40.7229 35.4167 35.75C35.4167 32.1208 32.6125 29.1667 29.1667 29.1667ZM25.8896 43.4271C25.375 43.8583 24.6271 43.8583 24.1104 43.4271C21.475 41.2146 18.75 37.7396 18.75 35.75C18.75 34.4167 19.6854 33.3333 20.8333 33.3333C21.7937 33.3333 22.9167 33.8583 22.9167 35.3417V35.4167C22.9167 36.5687 23.85 37.5 25 37.5C26.15 37.5 27.0833 36.5687 27.0833 35.4167V35.3417C27.0833 33.8583 28.2062 33.3333 29.1667 33.3333C30.3146 33.3333 31.25 34.4187 31.25 35.75C31.25 37.7375 28.5229 41.2125 25.8896 43.4271ZM25 25C31.8937 25 37.5 19.3937 37.5 12.5C37.5 5.60625 31.8937 0 25 0C18.1062 0 12.5 5.60625 12.5 12.5C12.5 19.3937 18.1062 25 25 25ZM25 4.16667C29.5958 4.16667 33.3333 7.90417 33.3333 12.5C33.3333 17.0958 29.5958 20.8333 25 20.8333C20.4042 20.8333 16.6667 17.0958 16.6667 12.5C16.6667 7.90417 20.4042 4.16667 25 4.16667ZM43.75 45.8333V47.9167C43.75 49.0687 42.8167 50 41.6667 50C40.5167 50 39.5833 49.0687 39.5833 47.9167V45.8333C39.5833 43.2708 38.9083 40.75 37.6333 38.5437C37.0583 37.5458 37.3979 36.2729 38.3937 35.6979C39.3875 35.1187 40.6625 35.4625 41.2396 36.4562C42.8812 39.2958 43.75 42.5375 43.75 45.8333ZM12.3667 38.5437C11.0917 40.75 10.4167 43.2708 10.4167 45.8333V47.9167C10.4167 49.0687 9.48333 50 8.33333 50C7.18333 50 6.25 49.0687 6.25 47.9167V45.8333C6.25 42.5375 7.11875 39.2958 8.76042 36.4562C9.3375 35.4604 10.6125 35.1167 11.6062 35.6979C12.6042 36.2729 12.9437 37.5479 12.3667 38.5437Z" fill="url(#paint0_linear_58_462)"/>
<defs>
<linearGradient id="paint0_linear_58_462" x1="25" y1="0" x2="25" y2="50" gradientUnits="userSpaceOnUse">
<stop stop-color="#B254FA"/>
<stop offset="1" stop-color="#2DB9FF"/>
</linearGradient>
</defs>
</svg>
