<svg width="50" height="50" viewBox="0 0 50 50" fill="none" xmlns="http://www.w3.org/2000/svg">
<g clip-path="url(#clip0_58_464)">
<path d="M29.1667 25V10.4167C29.1667 6.97083 26.3625 4.16667 22.9167 4.16667H10.4167C6.97083 4.16667 4.16667 6.97083 4.16667 10.4167V39.5833C4.16667 43.0292 6.97083 45.8333 10.4167 45.8333H22.9167C24.0667 45.8333 25 46.7646 25 47.9167C25 49.0687 24.0667 50 22.9167 50H10.4167C4.67292 50 0 45.3271 0 39.5833V10.4167C0 4.67292 4.67292 0 10.4167 0H22.9167C28.6604 0 33.3333 4.67292 33.3333 10.4167V25C33.3333 26.1521 32.4021 27.0833 31.25 27.0833C30.0979 27.0833 29.1667 26.1521 29.1667 25ZM12.5 27.0833H10.4167C9.26667 27.0833 8.33333 28.0146 8.33333 29.1667C8.33333 30.3187 9.26667 31.25 10.4167 31.25H12.5C13.65 31.25 14.5833 30.3187 14.5833 29.1667C14.5833 28.0146 13.65 27.0833 12.5 27.0833ZM22.9167 27.0833H20.8333C19.6833 27.0833 18.75 28.0146 18.75 29.1667C18.75 30.3187 19.6833 31.25 20.8333 31.25H22.9167C24.0667 31.25 25 30.3187 25 29.1667C25 28.0146 24.0667 27.0833 22.9167 27.0833ZM12.5 35.4167H10.4167C9.26667 35.4167 8.33333 36.3479 8.33333 37.5C8.33333 38.6521 9.26667 39.5833 10.4167 39.5833H12.5C13.65 39.5833 14.5833 38.6521 14.5833 37.5C14.5833 36.3479 13.65 35.4167 12.5 35.4167ZM22.9167 35.4167H20.8333C19.6833 35.4167 18.75 36.3479 18.75 37.5C18.75 38.6521 19.6833 39.5833 20.8333 39.5833H22.9167C24.0667 39.5833 25 38.6521 25 37.5C25 36.3479 24.0667 35.4167 22.9167 35.4167ZM12.5 10.4167H10.4167C9.26667 10.4167 8.33333 11.3479 8.33333 12.5C8.33333 13.6521 9.26667 14.5833 10.4167 14.5833H12.5C13.65 14.5833 14.5833 13.6521 14.5833 12.5C14.5833 11.3479 13.65 10.4167 12.5 10.4167ZM22.9167 10.4167H20.8333C19.6833 10.4167 18.75 11.3479 18.75 12.5C18.75 13.6521 19.6833 14.5833 20.8333 14.5833H22.9167C24.0667 14.5833 25 13.6521 25 12.5C25 11.3479 24.0667 10.4167 22.9167 10.4167ZM12.5 18.75H10.4167C9.26667 18.75 8.33333 19.6812 8.33333 20.8333C8.33333 21.9854 9.26667 22.9167 10.4167 22.9167H12.5C13.65 22.9167 14.5833 21.9854 14.5833 20.8333C14.5833 19.6812 13.65 18.75 12.5 18.75ZM22.9167 18.75H20.8333C19.6833 18.75 18.75 19.6812 18.75 20.8333C18.75 21.9854 19.6833 22.9167 20.8333 22.9167H22.9167C24.0667 22.9167 25 21.9854 25 20.8333C25 19.6812 24.0667 18.75 22.9167 18.75ZM49.9333 47.3958C48.7667 42.8667 44.4146 39.5833 39.5833 39.5833C34.7521 39.5833 30.3979 42.8687 29.2333 47.3958C28.9458 48.5083 29.6188 49.6458 30.7333 49.9333C31.8313 50.2208 32.9833 49.5479 33.2708 48.4333C33.9583 45.7625 36.6729 43.7479 39.5854 43.7479C42.4979 43.7479 45.2125 45.7625 45.9 48.4333C46.1833 49.5562 47.3521 50.2188 48.4375 49.9333C49.5521 49.6458 50.2229 48.5083 49.9375 47.3958H49.9333ZM39.5833 37.5C42.4563 37.5 44.7917 35.1646 44.7917 32.2917C44.7917 29.4187 42.4563 27.0833 39.5833 27.0833C36.7104 27.0833 34.375 29.4187 34.375 32.2917C34.375 35.1646 36.7104 37.5 39.5833 37.5Z" fill="url(#paint0_linear_58_464)"/>
</g>
<defs>
<linearGradient id="paint0_linear_58_464" x1="25.0016" y1="0" x2="25.0016" y2="50" gradientUnits="userSpaceOnUse">
<stop stop-color="#B254FA"/>
<stop offset="1" stop-color="#2DB9FF"/>
</linearGradient>
<clipPath id="clip0_58_464">
<rect width="50" height="50" fill="white"/>
</clipPath>
</defs>
</svg>
