<svg width="50" height="50" viewBox="0 0 50 50" fill="none" xmlns="http://www.w3.org/2000/svg">
<g clip-path="url(#clip0_58_466)">
<path d="M41.6667 29.4082V29.1665C41.6667 28.0165 40.7354 27.0832 39.5833 27.0832C38.4312 27.0832 37.5 28.0165 37.5 29.1665H31.25C31.25 28.0165 30.3187 27.0832 29.1667 27.0832C28.0146 27.0832 27.0833 28.0165 27.0833 29.1665V29.5249C24.1417 30.254 22.0187 32.0832 21.0896 34.7978C19.3729 39.8207 18.75 43.9624 18.75 45.5228C18.75 47.9936 20.7583 50.002 23.2292 50.002C26.45 50.002 30.1167 45.8811 31.5812 43.752L37.1437 43.704C38.6333 45.8811 42.3 50.002 45.5208 50.002C47.9917 50.002 49.9979 47.9936 49.9979 45.5228C49.9979 43.9624 49.375 39.8186 47.6583 34.7978C46.7167 32.0457 44.4167 30.054 41.6646 29.4124L41.6667 29.4082ZM45.5312 45.8332C44.8312 45.7811 42.4208 44.0395 40.5812 41.3499C39.825 40.2436 38.5458 39.5832 37.1667 39.5832H31.5792C30.2 39.5832 28.9229 40.2436 28.1646 41.3499C26.3271 44.0395 23.9146 45.7811 23.225 45.8332C23.0562 45.8332 22.9125 45.6895 22.9125 45.5207C22.9125 44.5228 23.4458 40.7749 25.0292 36.1436C25.8229 33.8207 28.2375 33.3332 30.1229 33.3332H39.7708C41.5542 33.3332 43.1396 34.4624 43.7146 36.1436C45.2979 40.7728 45.8312 44.5207 45.8312 45.5207C45.8312 45.6895 45.6917 45.8332 45.5312 45.8332ZM32.5896 5.21029C32.7646 4.7332 33.2208 4.41445 33.7312 4.41445H37.3792L38.6688 0.79362C38.8458 0.31862 39.3 0.00195312 39.8083 0.00195312C40.3167 0.00195312 40.7708 0.316536 40.9479 0.79362L42.2375 4.41445H45.8854C46.3958 4.41445 46.8521 4.7332 47.0271 5.21237C47.2021 5.69154 47.0583 6.22904 46.6687 6.56029L43.7937 8.90195L44.9833 12.5249C45.1458 13.0145 44.9833 13.554 44.5708 13.8707C44.1604 14.1853 43.5979 14.2082 43.1646 13.927L39.8187 11.7478L36.5292 13.9499C36.1021 14.2374 35.5375 14.2228 35.1229 13.9124C34.7083 13.602 34.5375 13.0665 34.6937 12.5749L35.8375 8.91029L32.9479 6.5582C32.5604 6.22904 32.4167 5.69154 32.5938 5.21237L32.5896 5.21029ZM16.7417 9.37695C16.9167 8.89987 17.3729 8.58112 17.8833 8.58112H21.5312L22.8208 4.96029C22.9979 4.48529 23.4521 4.16862 23.9604 4.16862C24.4688 4.16862 24.9229 4.4832 25.1 4.96029L26.3896 8.58112H30.0375C30.5479 8.58112 31.0042 8.89987 31.1792 9.37904C31.3542 9.8582 31.2104 10.3957 30.8208 10.727L27.9458 13.0686L29.1333 16.6915C29.2958 17.1811 29.1333 17.7207 28.7208 18.0374C28.3104 18.352 27.7479 18.3749 27.3146 18.0936L23.9688 15.9145L20.6792 18.1165C20.2521 18.404 19.6875 18.3895 19.2729 18.079C18.8583 17.7686 18.6875 17.2332 18.8438 16.7415L19.9875 13.0749L17.0979 10.7228C16.7104 10.3936 16.5646 9.85612 16.7417 9.37695ZM1.11667 13.5436C1.29167 13.0665 1.74792 12.7478 2.25833 12.7478H5.90625L7.19583 9.12695C7.37292 8.65195 7.82708 8.33529 8.33542 8.33529C8.84375 8.33529 9.29792 8.64987 9.475 9.12695L10.7646 12.7478H14.4125C14.9229 12.7478 15.3792 13.0665 15.5542 13.5457C15.7292 14.0249 15.5854 14.5624 15.1958 14.8936L12.3208 17.2353L13.5083 20.8582C13.6708 21.3478 13.5083 21.8874 13.0958 22.204C12.6854 22.5186 12.1229 22.5415 11.6896 22.2603L8.34375 20.0811L5.05417 22.2832C4.62708 22.5707 4.0625 22.5561 3.64792 22.2457C3.23333 21.9353 3.0625 21.3999 3.21875 20.9082L4.3625 17.2415L1.47292 14.8895C1.08542 14.5603 0.939583 14.0228 1.11667 13.5436ZM50 22.9165V24.9999C50 26.1499 49.0687 27.0832 47.9167 27.0832C46.7646 27.0832 45.8333 26.1499 45.8333 24.9999V22.9165C45.8333 21.7686 44.9 20.8332 43.75 20.8332H37.5C36.35 20.8332 35.4167 21.7686 35.4167 22.9165V23.4749C35.4167 24.2186 35.0208 24.9082 34.375 25.279C33.7271 25.652 32.9354 25.6499 32.2917 25.279C31.9771 25.0978 31.6167 25.002 31.25 25.002H20.8333C19.6854 25.002 18.75 25.9374 18.75 27.0853V31.252C18.75 32.402 17.8167 33.3353 16.6667 33.3353C15.5167 33.3353 14.5833 32.402 14.5833 31.252C14.5833 30.102 13.6479 29.1686 12.5 29.1686H6.25C5.10208 29.1686 4.16667 30.104 4.16667 31.252V43.752C4.16667 44.8999 5.10208 45.8353 6.25 45.8353H12.2542C13.4042 45.8353 14.3375 46.7686 14.3375 47.9186C14.3375 49.0686 13.4042 50.002 12.2542 50.002H6.25C2.80417 50.002 0 47.1978 0 43.752V31.252C0 27.8061 2.80417 25.002 6.25 25.002H12.5C13.3125 25.002 14.0896 25.1582 14.8021 25.4415C15.525 22.7915 17.9542 20.8353 20.8333 20.8353H31.25C31.3687 20.8353 31.4854 20.8374 31.6042 20.8457C32.4604 18.4144 34.7792 16.6686 37.5 16.6686H43.75C47.1958 16.6686 50 19.4728 50 22.9186V22.9165Z" fill="url(#paint0_linear_58_466)"/>
</g>
<defs>
<linearGradient id="paint0_linear_58_466" x1="25" y1="0.00195312" x2="25" y2="50.002" gradientUnits="userSpaceOnUse">
<stop stop-color="#B254FA"/>
<stop offset="1" stop-color="#2DB9FF"/>
</linearGradient>
<clipPath id="clip0_58_466">
<rect width="50" height="50" fill="white"/>
</clipPath>
</defs>
</svg>
