<svg width="50" height="50" viewBox="0 0 50 50" fill="none" xmlns="http://www.w3.org/2000/svg">
<g clip-path="url(#clip0_58_468)">
<path d="M31.4396 33.3271C45.1292 33.2583 50 26.0083 50 19.7917C50 16.2979 47.5271 13.375 44.2417 12.6687C44.525 11.8625 44.7708 11.1229 44.9375 10.5625C45.6729 8.07708 45.1958 5.45 43.6312 3.35625C42.0354 1.225 39.5958 0 36.9354 0H13.0646C10.4042 0 7.9625 1.225 6.36667 3.35833C4.80208 5.45208 4.32708 8.07917 5.0625 10.5625C5.22917 11.1229 5.47292 11.8625 5.75833 12.6687C2.47292 13.375 0 16.2979 0 19.7917C0 26.0083 4.87292 33.2583 18.5604 33.3271C18.6771 33.9562 18.75 34.5979 18.75 35.25V41.6667C18.75 45.4708 15.55 45.8167 14.5833 45.8333H12.5C11.3479 45.8333 10.4167 46.7646 10.4167 47.9167C10.4167 49.0687 11.3479 50 12.5 50H37.5C38.6521 50 39.5833 49.0687 39.5833 47.9167C39.5833 46.7646 38.6521 45.8333 37.5 45.8333H35.4333C34.45 45.8167 31.25 45.4708 31.25 41.6667V35.25C31.25 34.5979 31.3229 33.9562 31.4396 33.3271ZM42.7083 16.6667C44.4312 16.6667 45.8333 18.0687 45.8333 19.7917C45.8333 24.0292 42.4812 28.5354 33.2583 29.1042C33.7188 28.4812 34.2458 27.9042 34.8458 27.3937C38.4688 24.3146 40.9562 20.2 42.6104 16.6458C42.6458 16.6458 42.6729 16.6667 42.7083 16.6667ZM4.16667 19.7917C4.16667 18.0687 5.56875 16.6667 7.29167 16.6667C7.32708 16.6667 7.35625 16.6479 7.38958 16.6458C9.04375 20.2 11.5292 24.3125 15.1542 27.3937C15.7542 27.9042 16.2812 28.4792 16.7417 29.1042C7.51875 28.5354 4.16667 24.0292 4.16667 19.7917ZM21.9021 45.8333C22.5167 44.7062 22.9167 43.3458 22.9167 41.6667V35.25C22.9167 30.9771 21.0708 26.9583 17.8521 24.2208C14.1667 21.0875 10.8792 15.5396 9.05833 9.38333C8.7 8.16875 8.93333 6.88333 9.70625 5.85417C10.5062 4.78125 11.7312 4.16667 13.0646 4.16667H36.9333C38.2667 4.16667 39.4917 4.78125 40.2917 5.85208C41.0604 6.88333 41.2958 8.16875 40.9396 9.38125C39.1167 15.5417 35.8292 21.0875 32.1458 24.2208C28.9271 26.9562 27.0812 30.9771 27.0812 35.25V41.6667C27.0812 43.3458 27.4792 44.7062 28.0958 45.8333H21.9021ZM20.3979 20.3396C19.8479 19.9604 19.6167 19.2604 19.8354 18.6271L20.9167 15.2812L18.0708 13.1979C17.3896 12.6979 17.2417 11.7417 17.7417 11.0604C18.0292 10.6687 18.4875 10.4354 18.9729 10.4354H22.475L23.5396 7.11667C23.8083 6.31042 24.6792 5.87708 25.4854 6.14583C25.9437 6.29792 26.3042 6.65833 26.4562 7.11667L27.5187 10.4354H31.0208C31.8646 10.4354 32.55 11.1187 32.55 11.9646C32.55 12.4542 32.3167 12.9125 31.9229 13.2L29.0771 15.2833L30.1583 18.6292C30.4167 19.4333 29.975 20.2958 29.1687 20.5562C28.7021 20.7062 28.1917 20.6229 27.7958 20.3333L24.9979 18.275L22.1979 20.3312C21.6646 20.7292 20.9354 20.7312 20.3979 20.3396Z" fill="url(#paint0_linear_58_468)"/>
</g>
<defs>
<linearGradient id="paint0_linear_58_468" x1="25" y1="0" x2="25" y2="50" gradientUnits="userSpaceOnUse">
<stop stop-color="#B254FA"/>
<stop offset="1" stop-color="#2DB9FF"/>
</linearGradient>
<clipPath id="clip0_58_468">
<rect width="50" height="50" fill="white"/>
</clipPath>
</defs>
</svg>
