<svg width="375" height="175" viewBox="0 0 375 175" fill="none" xmlns="http://www.w3.org/2000/svg">
<path d="M0.14476 161.956C-0.202534 161.211 0.0965313 160.259 0.812758 159.829L12.4844 152.82C13.2007 152.39 14.0628 152.644 14.4102 153.389C14.7575 154.133 14.4584 155.085 13.7422 155.515L3.36736 161.746L8.39832 172.527C8.74564 173.271 8.44657 174.223 7.73034 174.653C7.01412 175.083 6.15193 174.829 5.80461 174.084L0.14476 161.956ZM163.708 53.8483L162.335 53.4828L162.391 53.289L162.49 53.1133L163.708 53.8483ZM373.933 53.8483L373.001 55.1054C372.26 54.4869 371.521 53.8749 370.784 53.2692L371.708 52.0054L372.631 50.7416C373.374 51.3517 374.119 51.9682 374.865 52.5912L373.933 53.8483ZM367.286 48.4344L366.379 49.7117C364.909 48.5439 363.445 47.4015 361.988 46.2843L362.878 44.9934L363.768 43.7024C365.236 44.8287 366.712 45.9801 368.194 47.1571L367.286 48.4344ZM358.311 41.5563L357.441 42.8615C355.932 41.7477 354.432 40.6611 352.939 39.601L353.79 38.2816L354.641 36.9622C356.147 38.0318 357.661 39.1279 359.182 40.2512L358.311 41.5563ZM349.113 35.0299L348.283 36.3641C346.728 35.3065 345.182 34.2779 343.645 33.2778L344.453 31.9288L345.261 30.5799C346.813 31.5899 348.374 32.6284 349.943 33.6958L349.113 35.0299ZM339.673 28.8928L338.889 30.2569C337.29 29.266 335.701 28.3061 334.121 27.3764L334.88 25.9971L335.638 24.6177C337.235 25.5574 338.841 26.5275 340.457 27.5286L339.673 28.8928ZM329.979 23.1922L329.247 24.5871C327.606 23.6745 325.976 22.7948 324.356 21.9472L325.059 20.5369L325.762 19.1265C327.401 19.9843 329.05 20.8743 330.71 21.7973L329.979 23.1922ZM320.021 17.9862L319.35 19.4122C317.67 18.5904 316.003 17.8035 314.347 17.0504L314.986 15.6091L315.626 14.1677C317.303 14.9308 318.993 15.728 320.693 16.5602L320.021 17.9862ZM309.801 13.3435L309.197 14.8003C307.473 14.0781 305.762 13.393 304.065 12.7439L304.632 11.2722L305.198 9.80053C306.921 10.4593 308.656 11.1544 310.405 11.8867L309.801 13.3435ZM299.325 9.34293L298.798 10.8292C297.019 10.2162 295.255 9.6431 293.507 9.10867L293.991 7.60852L294.475 6.10838C296.252 6.65166 298.044 7.23404 299.852 7.85664L299.325 9.34293ZM288.615 6.0716L288.176 7.58469C286.344 7.09756 284.53 6.65318 282.734 6.25011L283.124 4.72507L283.513 3.20003C285.343 3.61051 287.189 4.06288 289.053 4.55851L288.615 6.0716ZM277.622 3.60695L277.284 5.14244C275.432 4.80558 273.601 4.51288 271.789 4.26269L272.073 2.71848L272.357 1.17426C274.205 1.42955 276.073 1.72808 277.961 2.07147L277.622 3.60695ZM266.436 2.06795L266.211 3.61887C264.326 3.44456 262.464 3.31653 260.626 3.23281L260.79 1.67768L260.955 0.122544C262.835 0.208141 264.737 0.338992 266.662 0.517033L266.436 2.06795ZM255.134 1.55642L255.034 3.11292C253.131 3.11845 251.255 3.17167 249.405 3.27023L249.439 1.71562L249.472 0.161013C251.367 0.0600633 253.288 0.00559042 255.235 -7.05984e-05L255.134 1.55642ZM243.723 2.1688L243.76 3.71785C241.855 3.91903 239.98 4.1685 238.135 4.46344L238.027 2.92399L237.918 1.38455C239.811 1.0819 241.734 0.826036 243.687 0.619767L243.723 2.1688ZM232.358 3.98859L232.541 5.5141C230.657 5.92145 228.806 6.3764 226.99 6.87564L226.731 5.36869L226.472 3.86175C228.339 3.34873 230.24 2.8814 232.175 2.46308L232.358 3.98859ZM221.159 7.06858L221.494 8.55215C219.648 9.1722 217.841 9.83797 216.071 10.5456L215.659 9.09035L215.246 7.63512C217.066 6.90722 218.926 6.22254 220.824 5.58502L221.159 7.06858ZM210.246 11.4345L210.735 12.8563C208.948 13.6909 207.204 14.5679 205.504 15.4826L204.938 14.0991L204.372 12.7155C206.123 11.7739 207.918 10.8714 209.756 10.0126L210.246 11.4345ZM199.761 17.0759L200.401 18.4162C198.701 19.4589 197.049 20.5385 195.446 21.6498L194.731 20.3576L194.016 19.0654C195.667 17.921 197.368 16.8092 199.12 15.7356L199.761 17.0759ZM189.863 23.9396L190.65 25.1788C189.054 26.4232 187.515 27.6971 186.032 28.994L185.175 27.8129L184.318 26.6317C185.846 25.2951 187.432 23.9824 189.076 22.7004L189.863 23.9396ZM180.69 31.9661L181.615 33.084C180.151 34.519 178.752 35.9727 177.421 37.4371L176.429 36.3883L175.437 35.3395C176.812 33.8279 178.254 32.328 179.764 30.8482L180.69 31.9661ZM172.42 41.0674L173.477 42.0401C172.176 43.6532 170.956 45.2687 169.817 46.8764L168.696 45.9886L167.575 45.1008C168.755 43.4346 170.018 41.7624 171.363 40.0947L172.42 41.0674ZM165.269 51.1849L166.455 51.9748C165.92 52.8509 165.41 53.721 164.925 54.5832L163.708 53.8483L162.49 53.1133C162.995 52.2135 163.527 51.3067 164.084 50.395L165.269 51.1849ZM163.708 53.8483C165.08 54.2138 165.08 54.2139 165.08 54.2139C165.08 54.214 165.08 54.214 165.08 54.2141C165.08 54.2142 165.08 54.2143 165.08 54.2145C165.08 54.2148 165.08 54.2151 165.08 54.2155C165.08 54.2164 165.079 54.2174 165.079 54.2188C165.078 54.2215 165.077 54.2252 165.076 54.2299C165.073 54.2393 165.069 54.2528 165.064 54.2702C165.053 54.3052 165.038 54.3561 165.018 54.4227C164.978 54.5559 164.919 54.7515 164.84 55.0064C164.681 55.5163 164.443 56.2635 164.123 57.2227L162.771 56.7911L161.419 56.3594C161.731 55.4241 161.961 54.6999 162.113 54.212C162.189 53.9681 162.245 53.7832 162.282 53.6606C162.3 53.5993 162.314 53.5536 162.323 53.5238C162.327 53.5089 162.33 53.498 162.332 53.4912C162.333 53.4878 162.334 53.4853 162.334 53.4839C162.335 53.4832 162.335 53.4828 162.335 53.4826C162.335 53.4825 162.335 53.4825 162.335 53.4825C162.335 53.4825 162.335 53.4825 162.335 53.4826C162.335 53.4826 162.335 53.4826 162.335 53.4827C162.335 53.4827 162.335 53.4828 163.708 53.8483ZM160.639 62.7884L161.97 63.281C161.309 65.0409 160.539 67.0178 159.655 69.1759L158.344 68.6346L157.032 68.0933C157.902 65.9692 158.66 64.0249 159.309 62.2957L160.639 62.7884ZM155.857 74.4688L157.149 75.0555C156.327 76.9108 155.437 78.8534 154.477 80.8676L153.205 80.2368L151.934 79.606C152.879 77.6223 153.755 75.7091 154.564 73.882L155.857 74.4688ZM150.403 85.9137L151.654 86.5881C150.716 88.4234 149.724 90.3013 148.679 92.2116L147.452 91.4935L146.225 90.7755C147.254 88.8953 148.229 87.0466 149.153 85.2393L150.403 85.9137ZM144.347 96.9773L145.549 97.7395C144.499 99.5315 143.403 101.343 142.26 103.165L141.085 102.358L139.91 101.551C141.034 99.7591 142.112 97.978 143.144 96.2151L144.347 96.9773ZM137.661 107.63L138.806 108.483C137.642 110.215 136.435 111.951 135.184 113.683L134.072 112.783L132.96 111.883C134.187 110.182 135.372 108.478 136.516 106.777L137.661 107.63ZM130.314 117.805L131.39 118.753C130.108 120.404 128.785 122.048 127.42 123.677L126.383 122.68L125.346 121.683C126.683 120.087 127.98 118.476 129.237 116.857L130.314 117.805ZM122.279 127.393L123.272 128.44C121.872 129.985 120.432 131.512 118.952 133.016L118.005 131.919L117.059 130.822C118.506 129.352 119.915 127.858 121.285 126.346L122.279 127.393ZM113.568 136.237L114.463 137.384C112.946 138.797 111.39 140.183 109.795 141.538L108.956 140.341L108.117 139.144C109.673 137.823 111.192 136.47 112.673 135.09L113.568 136.237ZM104.173 144.21L104.951 145.456C103.317 146.713 101.646 147.936 99.9351 149.119L99.2215 147.826L98.508 146.533C100.173 145.381 101.802 144.19 103.395 142.965L104.173 144.21ZM94.1362 151.153L94.7811 152.491C93.0508 153.559 91.284 154.586 89.4803 155.568L88.9077 154.188L88.3352 152.808C90.0893 151.853 91.8079 150.854 93.4914 149.815L94.1362 151.153ZM83.5404 156.919L84.0375 158.337C82.2161 159.201 80.3596 160.018 78.4676 160.785L78.0484 159.333L77.6293 157.88C79.4683 157.134 81.2729 156.34 83.0434 155.501L83.5404 156.919ZM72.4988 161.4L72.8393 162.882C70.9638 163.52 69.0557 164.109 67.1146 164.646L66.8535 163.14L66.5924 161.634C68.48 161.111 70.3352 160.539 72.1583 159.919L72.4988 161.4ZM61.1135 164.55L61.2953 166.076C59.3957 166.485 57.4662 166.844 55.5068 167.151L55.402 165.611L55.2971 164.071C57.2052 163.772 59.0832 163.422 60.9317 163.024L61.1135 164.55ZM49.6342 166.352L49.6638 167.901C47.7315 168.095 45.7717 168.239 43.7841 168.33L43.8273 166.775L43.8706 165.22C45.81 165.131 47.7213 164.991 49.6046 164.802L49.6342 166.352ZM38.1046 166.889L37.9926 168.446C36.0673 168.435 34.1171 168.375 32.1418 168.265L32.3198 166.711L32.4978 165.156C34.4296 165.264 36.3358 165.322 38.2165 165.333L38.1046 166.889ZM26.6411 166.258L26.4016 167.808C24.5087 167.612 22.5936 167.371 20.6563 167.082L20.9539 165.54L21.2516 163.997C23.1508 164.281 25.0271 164.517 26.8806 164.709L26.6411 166.258ZM15.3342 164.578L14.9823 166.111C13.1281 165.753 11.2543 165.352 9.36063 164.908L9.76305 163.385L10.1655 161.863C12.0261 162.3 13.8662 162.694 15.6861 163.045L15.3342 164.578ZM4.24408 161.977L3.79455 163.487C2.8575 163.229 1.91573 162.96 0.969289 162.681L1.44162 161.177L1.91396 159.673C2.84538 159.948 3.77192 160.213 4.69359 160.467L4.24408 161.977Z" fill="url(#paint0_linear_51_337)"/>
<defs>
<linearGradient id="paint0_linear_51_337" x1="47.6977" y1="153.906" x2="367.121" y2="35.4742" gradientUnits="userSpaceOnUse">
<stop stop-color="#BFF0FF"/>
<stop offset="1" stop-color="#82B4FF"/>
</linearGradient>
</defs>
</svg>
