<svg width="50" height="50" viewBox="0 0 50 50" fill="none" xmlns="http://www.w3.org/2000/svg">
<g clip-path="url(#clip0_28_80)">
<path d="M14.5854 17.7083C14.5854 18.2833 14.1188 18.75 13.5438 18.75H11.4604C10.8854 18.75 10.4188 18.2833 10.4188 17.7083C10.4188 17.1333 10.8854 16.6667 11.4604 16.6667H13.5438C14.1188 16.6667 14.5854 17.1333 14.5854 17.7083ZM13.5438 22.9167H11.4604C10.8854 22.9167 10.4188 23.3833 10.4188 23.9583C10.4188 24.5333 10.8854 25 11.4604 25H13.5438C14.1188 25 14.5854 24.5333 14.5854 23.9583C14.5854 23.3833 14.1188 22.9167 13.5438 22.9167ZM13.5438 29.1667H11.4604C10.8854 29.1667 10.4188 29.6333 10.4188 30.2083C10.4188 30.7833 10.8854 31.25 11.4604 31.25H13.5438C14.1188 31.25 14.5854 30.7833 14.5854 30.2083C14.5854 29.6333 14.1188 29.1667 13.5438 29.1667ZM21.8771 29.1667C21.3021 29.1667 20.8354 29.6333 20.8354 30.2083C20.8354 30.7833 21.3021 31.25 21.8771 31.25H23.9604C24.5354 31.25 25.0021 30.7833 25.0021 30.2083C25.0021 29.6333 24.5354 29.1667 23.9604 29.1667H21.8771ZM18.7521 48.9583C18.7521 49.5333 18.2854 50 17.7104 50H9.37708C4.20625 50 0 45.7937 0 40.625V9.375C0 4.20625 4.20625 0 9.37708 0H20.8667C24.4833 0 27.8854 1.41042 30.4438 3.96667L37.7021 11.225C39.9708 13.4937 41.3646 16.5063 41.625 19.7042C41.6708 20.2771 41.2438 20.7812 40.6729 20.8271C40.0771 20.8708 39.5958 20.4458 39.55 19.875C39.5188 19.4917 39.425 19.1229 39.3563 18.7479H28.1271C25.2542 18.7479 22.9188 16.4125 22.9188 13.5396V2.28333C22.2458 2.1625 21.5625 2.08333 20.8667 2.08333H9.37708C5.35625 2.08333 2.08542 5.35417 2.08542 9.375V40.625C2.08542 44.6458 5.35625 47.9167 9.37708 47.9167H17.7104C18.2854 47.9167 18.7521 48.3833 18.7521 48.9583ZM28.9688 5.43958C27.8229 4.29375 26.4688 3.44167 25.0021 2.87292V13.5417C25.0021 15.2646 26.4042 16.6667 28.1271 16.6667H38.7688C38.1958 15.1958 37.3604 13.8313 36.2292 12.7L28.9708 5.44167L28.9688 5.43958ZM48.475 31.8062L32.4188 47.8625C31.0417 49.2396 29.2104 49.9979 27.2625 49.9979H23.9583C23.3833 49.9979 22.9167 49.5312 22.9167 48.9562V45.6521C22.9167 43.7042 23.675 41.875 25.0521 40.4958L41.1083 24.4396C43.1396 22.4083 46.4438 22.4083 48.4729 24.4396C50.5021 26.4708 50.5042 29.775 48.4729 31.8042L48.475 31.8062ZM47.0021 25.9146C45.7854 24.6979 43.8 24.6979 42.5833 25.9146L26.5271 41.9708C25.5417 42.9562 25.0021 44.2646 25.0021 45.6542V47.9167H27.2646C28.6542 47.9167 29.9625 47.375 30.9479 46.3917L47.0042 30.3354C48.2229 29.1167 48.2229 27.1354 47.0042 25.9167L47.0021 25.9146ZM27.0833 30.2083V27.0833C27.0833 25.9333 26.15 25 25 25H18.75V35.4167H22.9167C23.4917 35.4167 23.9583 35.8833 23.9583 36.4583C23.9583 37.0333 23.4917 37.5 22.9167 37.5H10.4188C8.12083 37.5 6.25208 35.6312 6.25208 33.3333V14.5833C6.25208 12.2854 8.12083 10.4167 10.4188 10.4167H14.5854C16.8833 10.4167 18.7521 12.2854 18.7521 14.5833V22.9167H25.0021C27.3 22.9167 29.1688 24.7854 29.1688 27.0833V30.2083C29.1688 30.7833 28.7021 31.25 28.1271 31.25C27.5521 31.25 27.0854 30.7833 27.0854 30.2083H27.0833ZM16.6667 14.5833C16.6667 13.4333 15.7333 12.5 14.5833 12.5H10.4167C9.26667 12.5 8.33333 13.4333 8.33333 14.5833V33.3333C8.33333 34.4833 9.26667 35.4167 10.4167 35.4167H16.6667V14.5833Z" fill="url(#paint0_linear_28_80)"/>
</g>
<defs>
<linearGradient id="paint0_linear_28_80" x1="24.9978" y1="0" x2="24.9978" y2="50" gradientUnits="userSpaceOnUse">
<stop stop-color="#B254FA"/>
<stop offset="1" stop-color="#44A8FE"/>
</linearGradient>
<clipPath id="clip0_28_80">
<rect width="50" height="50" fill="white"/>
</clipPath>
</defs>
</svg>
