<svg width="50" height="50" viewBox="0 0 50 50" fill="none" xmlns="http://www.w3.org/2000/svg">
<g clip-path="url(#clip0_32_109)">
<path d="M1.0417 37.5C1.30837 37.5 1.57503 37.3979 1.7792 37.1958L25.6 13.3688C29.4459 17.5958 32.4479 22.9521 33.5042 27.5917C33.7104 28.5083 34.5354 29.1688 35.4729 29.1688C36.5771 29.1938 37.5479 28.2021 37.5 27.0979C37.325 19.0854 35.0834 12.7104 30.8875 8.08125L31.9854 6.99167C32.3917 6.5875 32.3938 5.92708 31.9896 5.51875C31.5854 5.1125 30.925 5.10833 30.5167 5.51458L29.4167 6.60833C24.7959 2.4125 18.4229 0.175001 10.4042 1.40781e-06C9.26253 -0.0249986 8.30836 0.910418 8.33337 2.07708C8.33337 3.02917 8.98337 3.84167 9.91045 4.05C14.575 5.10625 19.9354 8.09167 24.125 11.8958L0.304199 35.7208C-0.102051 36.1271 -0.102051 36.7875 0.304199 37.1938C0.508366 37.3979 0.775032 37.5 1.0417 37.5ZM28.7104 8.76458C32.9042 12.9667 35.1563 18.9937 35.4188 26.6458C34.1104 21.4187 30.7646 15.6604 26.3709 11.1208C21.7334 6.6375 15.7521 3.23542 10.3604 2.08333C18.2667 2.25625 24.4396 4.50417 28.7104 8.76458ZM50 1.04167V26.3979C50 27.7896 49.4584 29.0979 48.475 30.0812L44.6667 33.8896C44.0771 34.4813 43.7521 35.2646 43.7521 36.1V38.5396C43.7521 41.4104 41.4167 43.7479 38.5438 43.7479H36.1021C35.2792 43.7479 34.475 44.0812 33.8917 44.6625L30.0834 48.4708C29.0979 49.4542 27.7917 49.9958 26.4 49.9958H1.0417C0.466699 49.9958 3.25454e-05 49.5292 3.25454e-05 48.9542C3.25454e-05 48.3792 0.466699 47.9125 1.0417 47.9125H26.4C27.2229 47.9125 28.0271 47.5792 28.6104 46.9979L32.4188 43.1896C33.4042 42.2062 34.7104 41.6646 36.1021 41.6646H38.5438C40.2667 41.6646 41.6688 40.2625 41.6688 38.5396V36.1C41.6688 34.7083 42.2104 33.4 43.1938 32.4167L47.0021 28.6083C47.5917 28.0167 47.9167 27.2333 47.9167 26.3979V1.04167C47.9167 0.466668 48.3834 1.40781e-06 48.9584 1.40781e-06C49.5334 1.40781e-06 50 0.466668 50 1.04167ZM24.075 25.3062L20.5063 26.8854C19.4396 27.3562 18.75 28.4146 18.75 29.5792V32.5562C18.75 33.675 19.4 34.7125 20.4021 35.2042L23.3688 36.6542C24.5771 37.2479 26.0521 36.9479 26.9271 35.8937L29.525 32.775C30.3688 31.7625 30.4354 30.3 29.6854 29.2146L27.6917 26.325C26.8896 25.1604 25.3667 24.7312 24.075 25.3042V25.3062ZM27.9271 31.4417L25.3292 34.5604C25.0729 34.8646 24.6438 34.9583 24.2854 34.7812L21.3188 33.3312C21.0229 33.1875 20.8354 32.8833 20.8354 32.5542V29.5771C20.8354 29.2354 21.0375 28.9271 21.35 28.7875L24.9188 27.2083C25.2917 27.0438 25.7438 27.1646 25.9792 27.5083L27.975 30.3979C28.1938 30.7146 28.175 31.1437 27.9292 31.4396L27.9271 31.4417ZM16.0375 38.9187C16.4209 39.0875 16.6688 39.4688 16.6688 39.8875V41.5417C16.6688 41.9458 16.4375 42.3146 16.075 42.4917L14.4271 43.2979C13.9896 43.5125 13.4604 43.4 13.1479 43.025L11.7042 41.2937C11.4 40.9292 11.3771 40.4062 11.6459 40.0146L12.7542 38.4083C13.0438 37.9896 13.5875 37.8354 14.0542 38.0417L16.0375 38.9187Z" fill="url(#paint0_linear_32_109)"/>
</g>
<defs>
<linearGradient id="paint0_linear_32_109" x1="24.9998" y1="-0.000488281" x2="24.9998" y2="49.9958" gradientUnits="userSpaceOnUse">
<stop stop-color="#B254FA"/>
<stop offset="1" stop-color="#2DB9FF"/>
</linearGradient>
<clipPath id="clip0_32_109">
<rect width="50" height="50" fill="white"/>
</clipPath>
</defs>
</svg>
