<svg width="50" height="50" viewBox="0 0 50 50" fill="none" xmlns="http://www.w3.org/2000/svg">
<g clip-path="url(#clip0_32_111)">
<path d="M45.2479 26.5625C44.8813 25.9271 44.3646 25.4208 43.7875 25C44.3625 24.5792 44.8813 24.0729 45.2479 23.4375L47.3521 19.7917C48.2813 18.1854 48.2813 16.1896 47.3521 14.5833L45.2479 10.9375C44.3209 9.33125 42.5938 8.33333 40.7375 8.33333H36.5271C35.8438 8.33333 35.1959 8.50833 34.5792 8.76042C34.5375 7.95 34.3354 7.14583 33.9188 6.425L31.7146 2.60625C30.7896 0.997917 29.0604 0 27.2063 0H22.7959C20.9396 0 19.2125 0.997917 18.2854 2.60417L16.0792 6.42292C15.6625 7.14583 15.4604 7.95 15.4188 8.75833C14.8042 8.50625 14.1542 8.33125 13.4708 8.33125H9.26043C7.40418 8.33125 5.6771 9.32917 4.75002 10.9354L2.64585 14.5812C1.71668 16.1875 1.71668 18.1833 2.64585 19.7896L4.75002 23.4354C5.11668 24.0708 5.63335 24.5771 6.21043 24.9979C5.63543 25.4187 5.11668 25.925 4.75002 26.5604L2.64585 30.2062C1.71668 31.8125 1.71668 33.8083 2.64585 35.4146L4.75002 39.0604C5.6771 40.6667 7.40418 41.6646 9.26043 41.6646H13.4708C14.1542 41.6646 14.8021 41.4896 15.4188 41.2375C15.4604 42.0479 15.6625 42.8521 16.0792 43.5729L18.2833 47.3917C19.2084 48.9979 20.9375 49.9958 22.7938 49.9958H27.2042C29.0604 49.9958 30.7896 48.9979 31.7125 47.3917L33.9188 43.5729C34.3354 42.85 34.5375 42.0458 34.5792 41.2375C35.1938 41.4896 35.8438 41.6646 36.5271 41.6646H40.7375C42.5938 41.6646 44.3209 40.6667 45.2479 39.0604L47.3521 35.4146C48.2813 33.8083 48.2813 31.8125 47.3521 30.2062L45.2479 26.5604V26.5625ZM40.7375 10.4167C41.85 10.4167 42.8875 11.0167 43.4459 11.9792L45.55 15.625C46.1063 16.5896 46.1063 17.7854 45.55 18.75L43.4459 22.3958C42.8875 23.3583 41.85 23.9583 40.7375 23.9583H36.5271C35.5334 23.9583 34.6188 23.4625 34.0334 22.675C33.9875 22.5854 31.6063 18.45 31.5604 18.3771C31.1938 17.4875 31.2271 16.4708 31.7125 15.625L33.8188 11.9792C34.3771 11.0167 35.4146 10.4167 36.5271 10.4167H40.7375ZM20.2417 30.5833C20.1833 30.4604 17.8334 26.3833 17.7688 26.2854C17.3979 25.4667 17.3979 24.5354 17.7688 23.7167C17.8354 23.6187 20.1854 19.5396 20.2438 19.4187C20.8209 18.5833 21.7667 18.0562 22.7938 18.0562H27.2042C28.2313 18.0562 29.1771 18.5812 29.7563 19.4187C29.8146 19.5417 32.1646 23.6187 32.2292 23.7167C32.6 24.5354 32.6 25.4667 32.2292 26.2854C32.1625 26.3833 29.8125 30.4625 29.7542 30.5833C29.1771 31.4187 28.2313 31.9458 27.2042 31.9458H22.7938C21.7667 31.9458 20.8209 31.4208 20.2417 30.5833ZM17.8833 7.46667L20.0896 3.64792C20.6438 2.68333 21.6813 2.08542 22.7938 2.08542H27.2042C28.3167 2.08542 29.3542 2.68333 29.9104 3.64792L32.1167 7.46667C32.6729 8.42917 32.6729 9.62708 32.1167 10.5917L29.9084 14.4104C29.3542 15.3729 28.3167 15.9729 27.2042 15.9729H22.7938C21.6813 15.9729 20.6438 15.375 20.0875 14.4104L17.8813 10.5917C17.325 9.62708 17.3271 8.42917 17.8833 7.46667ZM6.55418 22.3958L4.45002 18.75C3.89377 17.7854 3.89377 16.5896 4.45002 15.625L6.55418 11.9792C7.11252 11.0167 8.15002 10.4167 9.26252 10.4167H13.4729C14.5854 10.4167 15.6229 11.0167 16.1813 11.9792L18.2854 15.625C18.7729 16.4708 18.8063 17.4875 18.4396 18.3771C18.3938 18.4479 16.0125 22.5833 15.9667 22.675C15.3813 23.4625 14.4667 23.9583 13.4729 23.9583H9.26252C8.15002 23.9583 7.11252 23.3583 6.55418 22.3958ZM9.26252 39.5833C8.15002 39.5833 7.11252 38.9833 6.55418 38.0208L4.45002 34.375C3.89377 33.4104 3.89377 32.2146 4.45002 31.25L6.55418 27.6042C7.11252 26.6417 8.15002 26.0417 9.26252 26.0417H13.4729C14.4667 26.0417 15.3813 26.5375 15.9667 27.325C16.0125 27.4146 18.3938 31.55 18.4396 31.6229C18.8063 32.5125 18.7729 33.5292 18.2875 34.375L16.1813 38.0208C15.6229 38.9833 14.5854 39.5833 13.4729 39.5833H9.26252ZM32.1167 42.5354L29.9084 46.3562C29.3542 47.3187 28.3167 47.9187 27.2042 47.9187H22.7938C21.6813 47.9187 20.6438 47.3208 20.0875 46.3562L17.8813 42.5375C17.325 41.575 17.325 40.3771 17.8813 39.4125L20.0896 35.5937C20.6438 34.6312 21.6813 34.0312 22.7938 34.0312H27.2042C28.3167 34.0312 29.3542 34.6292 29.9104 35.5937L32.1167 39.4125C32.6729 40.3771 32.6729 41.5729 32.1167 42.5354ZM45.5479 34.375L43.4438 38.0208C42.8854 38.9833 41.8479 39.5833 40.7354 39.5833H36.525C35.4125 39.5833 34.375 38.9833 33.8167 38.0208L31.7125 34.375C31.225 33.5292 31.1917 32.5125 31.5584 31.6229C31.6042 31.5521 33.9854 27.4167 34.0313 27.325C34.6167 26.5375 35.5313 26.0417 36.525 26.0417H40.7354C41.8479 26.0417 42.8854 26.6417 43.4438 27.6042L45.5479 31.25C46.1042 32.2146 46.1042 33.4104 45.5479 34.375Z" fill="url(#paint0_linear_32_111)"/>
</g>
<defs>
<linearGradient id="paint0_linear_32_111" x1="24.999" y1="0" x2="24.999" y2="49.9958" gradientUnits="userSpaceOnUse">
<stop stop-color="#B254FA"/>
<stop offset="1" stop-color="#44A8FE"/>
</linearGradient>
<clipPath id="clip0_32_111">
<rect width="50" height="50" fill="white"/>
</clipPath>
</defs>
</svg>
