<svg width="50" height="50" viewBox="0 0 50 50" fill="none" xmlns="http://www.w3.org/2000/svg">
<g clip-path="url(#clip0_32_113)">
<path d="M32.2188 21.95C34.1833 23.9167 36.8 25 39.5833 25C42.3667 25 44.9833 23.9167 46.9479 21.95C50.9562 17.9438 51.0229 11.4333 47.1083 6.80626C47.1 6.79792 47.0937 6.78959 47.0854 6.78126L41.7792 0.897925C41.3042 0.435425 40.7313 -0.0020752 39.5812 -0.0020752C38.5438 -0.0020752 37.8563 0.435425 37.3396 0.945841L32.0562 6.80417C28.1417 11.4313 28.2083 17.9417 32.2167 21.9479L32.2188 21.95ZM33.6271 8.17501L38.7583 2.51876C39.075 2.17084 39.3771 2.06667 39.6333 2.06667C39.8896 2.06667 40.1292 2.21251 40.4333 2.50417L45.5292 8.16459C48.7292 11.9563 48.7062 17.2479 45.4771 20.4771C42.3312 23.625 36.8396 23.625 33.6937 20.4771C30.4583 17.2438 30.4396 11.9458 33.6292 8.17709L33.6271 8.17501ZM26.0417 37.4021V44.1C26.0417 45.9396 25.2062 47.6417 23.7458 48.7688C22.7 49.5771 21.45 50 20.1708 50C19.6771 50 19.1812 49.9375 18.6896 49.8104C7.68542 46.9479 0 36.8583 0 25C0 24.0604 0.0520833 23.1042 0.15625 22.1583C1.425 10.6771 10.6771 1.42501 22.1583 0.156258C23.1083 0.0520915 24.0646 8.13813e-06 25 8.13813e-06C27.2917 8.13813e-06 28.8292 0.237508 30.4333 0.591675C30.9958 0.716675 31.3479 1.27292 31.225 1.83334C31.1021 2.39376 30.5708 2.74792 29.9812 2.62501C28.4667 2.28959 27.1062 2.08126 24.9979 2.08126C24.1375 2.08126 23.2583 2.12917 22.3833 2.22501C11.8667 3.38959 3.38958 11.8667 2.22708 22.3854C2.13125 23.2563 2.08333 24.1354 2.08333 25C2.08333 35.7979 9.12917 45.1708 19.2167 47.7938C20.3542 48.0917 21.5396 47.8438 22.4729 47.1208C23.4187 46.3896 23.9583 45.2896 23.9583 44.1V37.3938C18.7083 36.8625 14.5833 32.4688 14.5833 27.0833V22.9167H13.5417C12.9667 22.9167 12.5 22.45 12.5 21.875C12.5 21.3 12.9667 20.8333 13.5417 20.8333H18.75V13.5417C18.75 12.9667 19.2167 12.5 19.7917 12.5C20.3667 12.5 20.8333 12.9667 20.8333 13.5417V20.8333H26.0417C26.6167 20.8333 27.0833 21.3 27.0833 21.875C27.0833 22.45 26.6167 22.9167 26.0417 22.9167H16.6667V27.0833C16.6667 31.6792 20.4042 35.4167 25 35.4167C29.2542 35.4167 32.8146 32.2333 33.2833 28.0104C33.3458 27.4396 33.8604 27.0229 34.4333 27.0896C35.0042 27.1521 35.4187 27.6688 35.3542 28.2396C34.8083 33.1646 30.8833 36.9167 26.0417 37.4021ZM49.7896 28.2583C48.5417 37.8146 41.7979 45.8854 32.6083 48.8208C32.0729 48.9938 31.4729 48.6979 31.2979 48.1438C31.1229 47.5958 31.4271 47.0104 31.9729 46.8354C40.3979 44.1458 46.5812 36.75 47.7229 27.9917C47.7979 27.4208 48.3292 27.0167 48.8917 27.0938C49.4625 27.1688 49.8646 27.6917 49.7917 28.2604L49.7896 28.2583Z" fill="url(#paint0_linear_32_113)"/>
</g>
<defs>
<linearGradient id="paint0_linear_32_113" x1="24.9999" y1="-0.0020752" x2="24.9999" y2="50" gradientUnits="userSpaceOnUse">
<stop stop-color="#B254FA"/>
<stop offset="1" stop-color="#44A8FE"/>
</linearGradient>
<clipPath id="clip0_32_113">
<rect width="50" height="50" fill="white"/>
</clipPath>
</defs>
</svg>
